G04*
G04 #@! TF.GenerationSoftware,Altium Limited,Altium Designer,22.4.2 (48)*
G04*
G04 Layer_Color=128*
%FSLAX23Y23*%
%MOIN*%
G70*
G04*
G04 #@! TF.SameCoordinates,3F3D87A5-55CA-4D91-88C0-6D81586DF976*
G04*
G04*
G04 #@! TF.FilePolarity,Positive*
G04*
G01*
G75*
%ADD14C,0.005*%
D14*
X2243Y1122D02*
X2269D01*
X2256Y1109D02*
Y1135D01*
X2046Y1122D02*
X2072D01*
X2059Y1109D02*
Y1135D01*
X2455Y325D02*
X2486D01*
X2470Y309D02*
Y341D01*
X2593Y325D02*
X2624D01*
X2608Y309D02*
Y341D01*
X2699Y1083D02*
X2739D01*
X2719Y1063D02*
Y1102D01*
X3049Y1083D02*
X3088D01*
X3069Y1063D02*
Y1102D01*
X1740Y1596D02*
X1803D01*
X1772Y1565D02*
Y1628D01*
X1543Y1596D02*
X1606D01*
X1575Y1565D02*
Y1628D01*
X1346Y1596D02*
X1409D01*
X1378Y1565D02*
Y1628D01*
X1150Y1596D02*
X1213D01*
X1181Y1565D02*
Y1628D01*
X1060Y2116D02*
X1086D01*
X1073Y2103D02*
Y2129D01*
X1257Y2116D02*
X1282D01*
X1270Y2103D02*
Y2129D01*
X890Y787D02*
X926D01*
X908Y769D02*
Y805D01*
X890Y887D02*
X926D01*
X908Y869D02*
Y905D01*
X890Y987D02*
X926D01*
X908Y969D02*
Y1005D01*
X890Y1087D02*
X926D01*
X908Y1069D02*
Y1105D01*
X890Y1187D02*
X926D01*
X908Y1169D02*
Y1205D01*
X890Y1287D02*
X926D01*
X908Y1269D02*
Y1305D01*
X890Y1387D02*
X926D01*
X908Y1369D02*
Y1405D01*
X890Y1487D02*
X926D01*
X908Y1469D02*
Y1505D01*
X890Y1587D02*
X926D01*
X908Y1569D02*
Y1605D01*
X890Y1687D02*
X926D01*
X908Y1669D02*
Y1705D01*
X890Y1787D02*
X926D01*
X908Y1769D02*
Y1805D01*
X890Y1887D02*
X926D01*
X908Y1869D02*
Y1905D01*
X890Y1987D02*
X926D01*
X908Y1969D02*
Y2005D01*
X890Y2087D02*
X926D01*
X908Y2069D02*
Y2105D01*
X590Y787D02*
X626D01*
X608Y769D02*
Y805D01*
X590Y887D02*
X626D01*
X608Y869D02*
Y905D01*
X590Y987D02*
X626D01*
X608Y969D02*
Y1005D01*
X590Y1087D02*
X626D01*
X608Y1069D02*
Y1105D01*
X590Y1187D02*
X626D01*
X608Y1169D02*
Y1205D01*
X590Y1287D02*
X626D01*
X608Y1269D02*
Y1305D01*
X590Y1387D02*
X626D01*
X608Y1369D02*
Y1405D01*
X590Y1487D02*
X626D01*
X608Y1469D02*
Y1505D01*
X590Y1587D02*
X626D01*
X608Y1569D02*
Y1605D01*
X590Y1687D02*
X626D01*
X608Y1669D02*
Y1705D01*
X590Y1787D02*
X626D01*
X608Y1769D02*
Y1805D01*
X590Y1887D02*
X626D01*
X608Y1869D02*
Y1905D01*
X590Y1987D02*
X626D01*
X608Y1969D02*
Y2005D01*
X590Y2087D02*
X626D01*
X608Y2069D02*
Y2105D01*
X2118Y459D02*
X2173D01*
X2146Y431D02*
Y486D01*
X1980Y459D02*
X2035D01*
X2008Y431D02*
Y486D01*
X1843Y459D02*
X1898D01*
X1870Y431D02*
Y486D01*
X2091Y778D02*
X2122D01*
X2106Y762D02*
Y793D01*
X2228Y778D02*
X2260D01*
X2244Y762D02*
Y793D01*
X1785Y1033D02*
X1817D01*
X1801Y1018D02*
Y1049D01*
X1785Y1171D02*
X1817D01*
X1801Y1156D02*
Y1187D01*
X1372Y1073D02*
X1399D01*
X1385Y1059D02*
Y1087D01*
X1180Y1073D02*
X1207D01*
X1193Y1059D02*
Y1087D01*
X1232Y463D02*
X1287D01*
X1260Y435D02*
Y490D01*
X1370Y463D02*
X1425D01*
X1398Y435D02*
Y490D01*
X1508Y463D02*
X1563D01*
X1535Y435D02*
Y490D01*
X2500Y642D02*
X2539D01*
X2520Y622D02*
Y662D01*
X2500Y992D02*
X2539D01*
X2520Y972D02*
Y1011D01*
X2898Y571D02*
X2949D01*
X2923Y545D02*
Y596D01*
X2898Y768D02*
X2949D01*
X2923Y742D02*
Y793D01*
X2762Y1752D02*
X2806D01*
X2784Y1730D02*
Y1774D01*
X2862Y1752D02*
X2906D01*
X2884Y1730D02*
Y1774D01*
X2962Y1752D02*
X3006D01*
X2984Y1730D02*
Y1774D01*
X2461Y1237D02*
X2504D01*
X2482Y1215D02*
Y1259D01*
X2461Y1337D02*
X2504D01*
X2482Y1315D02*
Y1359D01*
X2461Y1437D02*
X2504D01*
X2482Y1415D02*
Y1459D01*
X2957Y1398D02*
X2988D01*
X2972Y1382D02*
Y1413D01*
X2819Y1398D02*
X2850D01*
X2835Y1382D02*
Y1413D01*
X2896Y2215D02*
X2947D01*
X2921Y2189D02*
Y2240D01*
X2896Y2018D02*
X2947D01*
X2921Y1992D02*
Y2043D01*
X2317Y2539D02*
X2368D01*
X2343Y2514D02*
Y2565D01*
X2120Y2539D02*
X2171D01*
X2146Y2514D02*
Y2565D01*
X2276Y1860D02*
X2311D01*
X2293Y1843D02*
Y1878D01*
X2276Y2057D02*
X2311D01*
X2293Y2039D02*
Y2075D01*
X1890Y2638D02*
X1929D01*
X1909Y2618D02*
Y2657D01*
X1713Y2638D02*
X1752D01*
X1732Y2618D02*
Y2657D01*
X1890Y2382D02*
X1929D01*
X1909Y2362D02*
Y2402D01*
X1713Y2382D02*
X1752D01*
X1732Y2362D02*
Y2402D01*
X1523Y2116D02*
X1548D01*
X1535Y2103D02*
Y2129D01*
X1719Y2116D02*
X1745D01*
X1732Y2103D02*
Y2129D01*
X1726Y1949D02*
X1766D01*
X1746Y1929D02*
Y1969D01*
X1626Y1949D02*
X1666D01*
X1646Y1929D02*
Y1969D01*
X1526Y1949D02*
X1566D01*
X1546Y1929D02*
Y1969D01*
X1375Y1919D02*
X1401D01*
X1388Y1906D02*
Y1932D01*
X1375Y2116D02*
X1401D01*
X1388Y2103D02*
Y2129D01*
X337Y1909D02*
X392D01*
X364Y1882D02*
Y1937D01*
X337Y1772D02*
X392D01*
X364Y1744D02*
Y1799D01*
X337Y1634D02*
X392D01*
X364Y1606D02*
Y1661D01*
X337Y1496D02*
X392D01*
X364Y1469D02*
Y1524D01*
X337Y1358D02*
X392D01*
X364Y1331D02*
Y1386D01*
X337Y1220D02*
X392D01*
X364Y1193D02*
Y1248D01*
X337Y1083D02*
X392D01*
X364Y1055D02*
Y1110D01*
X337Y945D02*
X392D01*
X364Y917D02*
Y972D01*
X410Y2274D02*
X436D01*
X423Y2261D02*
Y2286D01*
X607Y2274D02*
X633D01*
X620Y2261D02*
Y2286D01*
X236Y2204D02*
X276D01*
X256Y2184D02*
Y2224D01*
X236Y2304D02*
X276D01*
X256Y2284D02*
Y2324D01*
X835Y2520D02*
X898D01*
X866Y2488D02*
Y2551D01*
X1031Y2520D02*
X1094D01*
X1063Y2488D02*
Y2551D01*
X1228Y2520D02*
X1291D01*
X1260Y2488D02*
Y2551D01*
X1425Y2520D02*
X1488D01*
X1457Y2488D02*
Y2551D01*
X1404Y689D02*
X1431D01*
X1417Y675D02*
Y703D01*
X1404Y787D02*
X1431D01*
X1417Y774D02*
Y801D01*
X1167Y679D02*
X1195D01*
X1181Y665D02*
Y693D01*
X1167Y778D02*
X1195D01*
X1181Y764D02*
Y791D01*
X138Y2559D02*
X256D01*
X197Y2500D02*
Y2618D01*
X116Y929D02*
X136D01*
X126Y919D02*
Y939D01*
X138Y197D02*
X256D01*
X197Y138D02*
Y256D01*
X2992Y197D02*
X3110D01*
X3051Y138D02*
Y256D01*
X2992Y2559D02*
X3110D01*
X3051Y2500D02*
Y2618D01*
M02*
