G04*
G04 #@! TF.GenerationSoftware,Altium Limited,Altium Designer,22.4.2 (48)*
G04*
G04 Layer_Physical_Order=1*
G04 Layer_Color=255*
%FSLAX23Y23*%
%MOIN*%
G70*
G04*
G04 #@! TF.SameCoordinates,3F3D87A5-55CA-4D91-88C0-6D81586DF976*
G04*
G04*
G04 #@! TF.FilePolarity,Positive*
G04*
G01*
G75*
%ADD17R,0.031X0.031*%
%ADD18R,0.045X0.045*%
%ADD19C,0.045*%
%ADD20R,0.051X0.051*%
%ADD21C,0.051*%
%ADD22R,0.061X0.061*%
%ADD23C,0.061*%
%ADD30R,0.051X0.051*%
%ADD33R,0.061X0.061*%
%ADD40R,0.055X0.055*%
%ADD41C,0.055*%
%ADD44R,0.045X0.045*%
%ADD46R,0.062X0.062*%
%ADD47C,0.062*%
%ADD48C,0.047*%
%ADD49R,0.047X0.047*%
%ADD52C,0.047*%
%ADD53C,0.031*%
%ADD54C,0.020*%
%ADD55C,0.094*%
%ADD56R,0.094X0.094*%
%ADD57C,0.059*%
%ADD58R,0.059X0.059*%
%ADD59C,0.083*%
%ADD60R,0.083X0.083*%
%ADD61R,0.047X0.047*%
%ADD62R,0.077X0.077*%
%ADD63C,0.077*%
%ADD64C,0.067*%
%ADD65R,0.067X0.067*%
%ADD66R,0.067X0.067*%
%ADD67R,0.077X0.077*%
%ADD68C,0.079*%
%ADD69C,0.157*%
%ADD70C,0.039*%
G36*
X788Y2633D02*
X758Y2603D01*
X752Y2596D01*
X748Y2587D01*
X747Y2578D01*
Y2484D01*
X748Y2475D01*
X752Y2467D01*
X758Y2459D01*
X807Y2410D01*
Y2400D01*
X803Y2398D01*
X778Y2422D01*
X771Y2428D01*
X762Y2431D01*
X753Y2433D01*
X284D01*
X282Y2437D01*
X482Y2638D01*
X786D01*
X788Y2633D01*
D02*
G37*
G36*
X2189D02*
X2153Y2597D01*
X2151Y2597D01*
X2140D01*
X2129Y2595D01*
X2118Y2591D01*
X2109Y2584D01*
X2101Y2576D01*
X2094Y2567D01*
X2090Y2556D01*
X2088Y2545D01*
Y2534D01*
X2090Y2522D01*
X2094Y2512D01*
X2101Y2502D01*
X2109Y2494D01*
X2118Y2488D01*
X2129Y2484D01*
X2140Y2481D01*
X2151D01*
X2163Y2484D01*
X2173Y2488D01*
X2183Y2494D01*
X2191Y2502D01*
X2197Y2512D01*
X2202Y2522D01*
X2204Y2534D01*
Y2545D01*
X2203Y2547D01*
X2235Y2578D01*
X2294D01*
Y2544D01*
X2343D01*
X2391D01*
Y2578D01*
X2570D01*
X2748Y2400D01*
Y1791D01*
X2741Y1785D01*
X2734Y1772D01*
X2731Y1759D01*
Y1745D01*
X2734Y1731D01*
X2741Y1719D01*
X2748Y1713D01*
Y1448D01*
X2749Y1439D01*
X2753Y1431D01*
X2759Y1423D01*
X2789Y1392D01*
Y1392D01*
X2792Y1380D01*
X2798Y1370D01*
X2807Y1361D01*
X2817Y1355D01*
X2829Y1352D01*
X2841D01*
X2852Y1355D01*
X2862Y1361D01*
X2871Y1370D01*
X2877Y1380D01*
X2880Y1392D01*
Y1404D01*
X2877Y1415D01*
X2871Y1425D01*
X2862Y1434D01*
X2852Y1440D01*
X2841Y1443D01*
X2840D01*
X2820Y1463D01*
Y1713D01*
X2826Y1719D01*
X2833Y1731D01*
X2835Y1738D01*
X2840Y1737D01*
Y1486D01*
X2842Y1475D01*
X2846Y1464D01*
X2853Y1455D01*
X2937Y1371D01*
Y1362D01*
X2948D01*
X2951Y1360D01*
X2961Y1355D01*
X2972Y1354D01*
X2984Y1355D01*
X2994Y1360D01*
X2997Y1362D01*
X3008D01*
Y1373D01*
X3010Y1376D01*
X3015Y1386D01*
X3016Y1398D01*
X3015Y1409D01*
X3010Y1419D01*
X3008Y1422D01*
Y1433D01*
X2999D01*
X2928Y1504D01*
Y1695D01*
X2931Y1699D01*
X2986D01*
X3033Y1653D01*
Y1118D01*
X3028Y1113D01*
X3022Y1102D01*
X3018Y1089D01*
Y1076D01*
X3022Y1063D01*
X3028Y1052D01*
X3038Y1043D01*
X3049Y1036D01*
X3062Y1032D01*
X3075D01*
X3088Y1036D01*
X3095Y1040D01*
X3100Y1037D01*
Y423D01*
X2825Y148D01*
X1754D01*
X1752Y152D01*
X1998Y398D01*
X2002Y398D01*
X2014D01*
X2026Y400D01*
X2037Y405D01*
X2047Y411D01*
X2055Y420D01*
X2062Y430D01*
X2067Y441D01*
X2069Y453D01*
Y465D01*
X2067Y476D01*
X2062Y488D01*
X2055Y498D01*
X2047Y506D01*
X2037Y513D01*
X2026Y517D01*
X2014Y520D01*
X2002D01*
X1999Y519D01*
X1997Y524D01*
X2137Y664D01*
X2144Y673D01*
X2148Y684D01*
X2150Y695D01*
Y759D01*
X2287Y896D01*
X2294Y905D01*
X2298Y916D01*
X2300Y927D01*
Y1122D01*
X2298Y1133D01*
X2294Y1144D01*
X2289Y1151D01*
Y1155D01*
X2285D01*
X2278Y1160D01*
X2267Y1164D01*
X2256Y1166D01*
X2245Y1164D01*
X2234Y1160D01*
X2227Y1155D01*
X2223D01*
Y1151D01*
X2218Y1144D01*
X2214Y1133D01*
X2212Y1122D01*
Y945D01*
X2080Y813D01*
X2071D01*
Y802D01*
X2068Y799D01*
X2064Y789D01*
X2063Y778D01*
Y713D01*
X1860Y510D01*
X1819D01*
Y464D01*
X1870D01*
Y459D01*
X1875D01*
Y407D01*
X1899D01*
X1901Y403D01*
X1650Y152D01*
X1314D01*
X878Y588D01*
Y743D01*
X882Y745D01*
X889Y741D01*
X901Y738D01*
X914D01*
X927Y741D01*
X938Y748D01*
X947Y757D01*
X954Y768D01*
X957Y781D01*
Y786D01*
X1153Y982D01*
X1158Y980D01*
Y946D01*
X1156Y944D01*
X1150Y937D01*
X1147Y928D01*
X1145Y919D01*
Y821D01*
X1138D01*
Y734D01*
X1224D01*
Y821D01*
X1217D01*
Y904D01*
X1219Y906D01*
X1224Y913D01*
X1228Y922D01*
X1229Y931D01*
X1229Y931D01*
Y1030D01*
X1237D01*
Y1116D01*
X1176D01*
X1174Y1121D01*
X1403Y1350D01*
X1409Y1358D01*
X1412Y1366D01*
X1414Y1376D01*
X1414Y1376D01*
Y1540D01*
X1421Y1544D01*
X1430Y1554D01*
X1437Y1565D01*
X1442Y1577D01*
X1445Y1590D01*
Y1603D01*
X1442Y1616D01*
X1437Y1628D01*
X1430Y1639D01*
X1421Y1648D01*
X1410Y1656D01*
X1397Y1661D01*
X1385Y1663D01*
X1371D01*
X1358Y1661D01*
X1346Y1656D01*
X1335Y1648D01*
X1326Y1639D01*
X1319Y1628D01*
X1314Y1616D01*
X1311Y1603D01*
Y1590D01*
X1314Y1577D01*
X1319Y1565D01*
X1326Y1554D01*
X1335Y1544D01*
X1342Y1540D01*
Y1390D01*
X1109Y1157D01*
X1103Y1150D01*
X1100Y1141D01*
X1099Y1132D01*
Y1028D01*
X1032Y962D01*
X1028Y964D01*
X1029Y972D01*
X1029Y972D01*
Y1102D01*
X1206Y1279D01*
X1212Y1287D01*
X1216Y1295D01*
X1217Y1305D01*
Y1530D01*
X1248D01*
Y1663D01*
X1114D01*
Y1530D01*
X1145D01*
Y1319D01*
X968Y1142D01*
X962Y1134D01*
X958Y1126D01*
X957Y1116D01*
Y1110D01*
X952Y1109D01*
X947Y1117D01*
X938Y1126D01*
X927Y1133D01*
X921Y1134D01*
Y1140D01*
X927Y1141D01*
X938Y1148D01*
X947Y1157D01*
X954Y1168D01*
X957Y1181D01*
Y1186D01*
X1061Y1290D01*
X1067Y1297D01*
X1070Y1306D01*
X1072Y1315D01*
Y1868D01*
X1117Y1913D01*
X1159D01*
X1161Y1913D01*
X1164Y1913D01*
X1197D01*
Y1946D01*
X1197Y1949D01*
Y1993D01*
X1279Y2075D01*
X1286Y2077D01*
X1296Y2082D01*
X1304Y2090D01*
X1309Y2100D01*
X1312Y2111D01*
Y2122D01*
X1309Y2132D01*
X1304Y2142D01*
X1296Y2150D01*
X1286Y2156D01*
X1281Y2157D01*
X1279Y2162D01*
X1285Y2168D01*
X1291Y2175D01*
X1294Y2184D01*
X1296Y2193D01*
Y2463D01*
X1303Y2468D01*
X1312Y2477D01*
X1319Y2488D01*
X1324Y2500D01*
X1327Y2513D01*
Y2526D01*
X1324Y2539D01*
X1319Y2551D01*
X1312Y2562D01*
X1303Y2572D01*
X1292Y2579D01*
X1279Y2584D01*
X1266Y2587D01*
X1253D01*
X1240Y2584D01*
X1228Y2579D01*
X1217Y2572D01*
X1208Y2562D01*
X1201Y2551D01*
X1195Y2539D01*
X1193Y2526D01*
Y2513D01*
X1195Y2500D01*
X1201Y2488D01*
X1208Y2477D01*
X1217Y2468D01*
X1224Y2463D01*
Y2208D01*
X1120Y2103D01*
X1118Y2104D01*
X1115Y2106D01*
X1117Y2116D01*
Y2313D01*
X1115Y2324D01*
X1111Y2335D01*
X1104Y2344D01*
X923Y2524D01*
Y2527D01*
X919Y2542D01*
X912Y2555D01*
X901Y2565D01*
X888Y2573D01*
X874Y2577D01*
X871D01*
Y2520D01*
X861D01*
Y2577D01*
X859D01*
X844Y2573D01*
X831Y2565D01*
X826Y2561D01*
X821Y2562D01*
X820Y2565D01*
X893Y2638D01*
X1288D01*
X1390Y2536D01*
Y2453D01*
X1524D01*
Y2587D01*
X1440D01*
X1394Y2633D01*
X1396Y2638D01*
X1683D01*
Y2631D01*
X1686Y2619D01*
X1693Y2608D01*
X1697Y2604D01*
Y2416D01*
X1693Y2412D01*
X1686Y2401D01*
X1683Y2388D01*
Y2383D01*
X1510Y2210D01*
X1504Y2203D01*
X1501Y2194D01*
X1500Y2185D01*
Y2158D01*
X1493D01*
Y2074D01*
X1578D01*
Y2158D01*
X1571D01*
Y2170D01*
X1734Y2333D01*
X1739D01*
X1751Y2336D01*
X1763Y2343D01*
X1772Y2352D01*
X1778Y2363D01*
X1781Y2375D01*
Y2388D01*
X1778Y2401D01*
X1772Y2412D01*
X1768Y2416D01*
Y2604D01*
X1772Y2608D01*
X1778Y2619D01*
X1781Y2631D01*
Y2638D01*
X1866D01*
X1866Y2638D01*
Y2382D01*
X1867Y2371D01*
X1872Y2360D01*
X1879Y2351D01*
X1888Y2344D01*
X1898Y2340D01*
X1909Y2338D01*
X1921Y2340D01*
X1931Y2344D01*
X1940Y2351D01*
X1947Y2360D01*
X1952Y2371D01*
X1953Y2382D01*
Y2638D01*
X1953Y2638D01*
X2187D01*
X2189Y2633D01*
D02*
G37*
G36*
X153Y2302D02*
Y1120D01*
X154Y1111D01*
X158Y1102D01*
X164Y1095D01*
X306Y953D01*
X305Y951D01*
Y939D01*
X307Y928D01*
X312Y917D01*
X318Y907D01*
X327Y899D01*
X336Y893D01*
X347Y888D01*
X358Y886D01*
X370D01*
X381Y888D01*
X392Y893D01*
X402Y899D01*
X410Y907D01*
X417Y917D01*
X421Y928D01*
X423Y939D01*
Y951D01*
X421Y962D01*
X417Y973D01*
X410Y983D01*
X402Y991D01*
X392Y997D01*
X381Y1002D01*
X370Y1004D01*
X358D01*
X356Y1003D01*
X333Y1026D01*
X336Y1030D01*
X347Y1026D01*
X358Y1024D01*
X370D01*
X381Y1026D01*
X392Y1030D01*
X402Y1037D01*
X410Y1045D01*
X417Y1055D01*
X421Y1065D01*
X423Y1077D01*
Y1088D01*
X421Y1100D01*
X417Y1111D01*
X410Y1120D01*
X402Y1129D01*
X392Y1135D01*
X381Y1139D01*
X370Y1142D01*
X358D01*
X356Y1141D01*
X333Y1164D01*
X336Y1168D01*
X347Y1164D01*
X358Y1161D01*
X370D01*
X381Y1164D01*
X392Y1168D01*
X402Y1175D01*
X410Y1183D01*
X417Y1192D01*
X421Y1203D01*
X423Y1215D01*
Y1226D01*
X421Y1238D01*
X417Y1248D01*
X410Y1258D01*
X402Y1266D01*
X392Y1273D01*
X381Y1277D01*
X370Y1280D01*
X358D01*
X347Y1277D01*
X336Y1273D01*
X327Y1266D01*
X318Y1258D01*
X312Y1248D01*
X307Y1238D01*
X305Y1226D01*
Y1215D01*
X307Y1203D01*
X312Y1192D01*
X308Y1190D01*
X294Y1204D01*
Y1984D01*
X573Y2264D01*
X578Y2262D01*
X582Y2252D01*
X589Y2243D01*
X637Y2195D01*
Y2136D01*
X559D01*
Y2038D01*
X588D01*
X589Y2033D01*
X578Y2026D01*
X568Y2017D01*
X562Y2006D01*
X559Y1993D01*
Y1981D01*
X562Y1968D01*
X568Y1957D01*
X578Y1948D01*
X589Y1941D01*
X595Y1940D01*
Y1934D01*
X589Y1933D01*
X578Y1926D01*
X568Y1917D01*
X562Y1906D01*
X559Y1893D01*
Y1881D01*
X562Y1868D01*
X568Y1857D01*
X578Y1848D01*
X589Y1841D01*
X595Y1840D01*
Y1834D01*
X589Y1833D01*
X578Y1826D01*
X568Y1817D01*
X562Y1806D01*
X559Y1793D01*
Y1781D01*
X562Y1768D01*
X568Y1757D01*
X578Y1748D01*
X589Y1741D01*
X595Y1740D01*
Y1734D01*
X589Y1733D01*
X578Y1726D01*
X574Y1723D01*
X464D01*
X423Y1764D01*
X423Y1766D01*
Y1777D01*
X421Y1789D01*
X417Y1800D01*
X410Y1809D01*
X402Y1818D01*
X392Y1824D01*
X381Y1828D01*
X370Y1831D01*
X358D01*
X347Y1828D01*
X336Y1824D01*
X327Y1818D01*
X318Y1809D01*
X312Y1800D01*
X307Y1789D01*
X305Y1777D01*
Y1766D01*
X307Y1754D01*
X312Y1744D01*
X318Y1734D01*
X327Y1726D01*
X336Y1719D01*
X347Y1715D01*
X358Y1713D01*
X370D01*
X372Y1713D01*
X395Y1690D01*
X392Y1686D01*
X381Y1691D01*
X370Y1693D01*
X358D01*
X347Y1691D01*
X336Y1686D01*
X327Y1680D01*
X318Y1672D01*
X312Y1662D01*
X307Y1651D01*
X305Y1640D01*
Y1628D01*
X307Y1617D01*
X312Y1606D01*
X318Y1596D01*
X327Y1588D01*
X336Y1582D01*
X347Y1577D01*
X358Y1575D01*
X370D01*
X381Y1577D01*
X392Y1582D01*
X402Y1588D01*
X410Y1596D01*
X417Y1606D01*
X421Y1617D01*
X423Y1628D01*
Y1640D01*
X421Y1651D01*
X417Y1662D01*
X421Y1665D01*
X424Y1662D01*
X431Y1656D01*
X440Y1652D01*
X449Y1651D01*
X574D01*
X578Y1648D01*
X589Y1641D01*
X595Y1640D01*
Y1634D01*
X589Y1633D01*
X578Y1626D01*
X568Y1617D01*
X562Y1606D01*
X559Y1593D01*
Y1581D01*
X562Y1568D01*
X568Y1557D01*
X578Y1548D01*
X589Y1541D01*
X589Y1541D01*
X591Y1535D01*
X590Y1533D01*
X589Y1533D01*
X578Y1526D01*
X568Y1517D01*
X562Y1506D01*
X559Y1493D01*
Y1481D01*
X562Y1468D01*
X568Y1457D01*
X578Y1448D01*
X589Y1441D01*
X601Y1438D01*
X614D01*
X627Y1441D01*
X638Y1448D01*
X647Y1457D01*
X654Y1468D01*
X655Y1472D01*
X663Y1480D01*
X666Y1481D01*
X677Y1485D01*
X686Y1492D01*
X712Y1518D01*
X719Y1527D01*
X723Y1538D01*
X725Y1549D01*
Y1713D01*
X729Y1715D01*
X859Y1586D01*
Y1581D01*
X862Y1568D01*
X868Y1557D01*
X878Y1548D01*
X889Y1541D01*
X901Y1538D01*
X914D01*
X927Y1541D01*
X938Y1548D01*
X947Y1557D01*
X954Y1568D01*
X957Y1581D01*
Y1593D01*
X954Y1606D01*
X947Y1617D01*
X938Y1626D01*
X927Y1633D01*
X921Y1634D01*
Y1640D01*
X927Y1641D01*
X938Y1648D01*
X947Y1657D01*
X954Y1668D01*
X957Y1681D01*
Y1693D01*
X954Y1706D01*
X947Y1717D01*
X938Y1726D01*
X927Y1733D01*
X921Y1734D01*
Y1740D01*
X927Y1741D01*
X938Y1748D01*
X947Y1757D01*
X954Y1768D01*
X957Y1781D01*
Y1793D01*
X954Y1806D01*
X947Y1817D01*
X938Y1826D01*
X927Y1833D01*
X921Y1834D01*
Y1840D01*
X927Y1841D01*
X938Y1848D01*
X947Y1857D01*
X954Y1868D01*
X957Y1881D01*
Y1893D01*
X954Y1906D01*
X947Y1917D01*
X938Y1926D01*
X927Y1933D01*
X921Y1934D01*
Y1940D01*
X927Y1941D01*
X938Y1948D01*
X947Y1957D01*
X954Y1968D01*
X957Y1981D01*
Y1993D01*
X954Y2006D01*
X950Y2013D01*
X952Y2017D01*
X1120D01*
X1122Y2017D01*
X1126Y2013D01*
X1126Y2008D01*
Y1984D01*
X1105D01*
X1102Y1985D01*
X1100Y1984D01*
X1067D01*
Y1964D01*
X1011Y1908D01*
X1005Y1900D01*
X1001Y1892D01*
X1000Y1882D01*
Y1330D01*
X962Y1291D01*
X959Y1292D01*
X957Y1294D01*
X954Y1306D01*
X952Y1310D01*
Y1364D01*
X954Y1368D01*
X957Y1381D01*
Y1393D01*
X954Y1406D01*
X947Y1417D01*
X938Y1426D01*
X927Y1433D01*
X914Y1436D01*
X901D01*
X889Y1433D01*
X878Y1426D01*
X868Y1417D01*
X862Y1406D01*
X859Y1393D01*
Y1381D01*
X862Y1368D01*
X864Y1364D01*
Y1310D01*
X862Y1306D01*
X859Y1293D01*
Y1281D01*
X862Y1268D01*
X868Y1257D01*
X878Y1248D01*
X889Y1241D01*
X895Y1240D01*
Y1234D01*
X889Y1233D01*
X878Y1226D01*
X868Y1217D01*
X862Y1206D01*
X859Y1193D01*
Y1181D01*
X862Y1168D01*
X868Y1157D01*
X878Y1148D01*
X889Y1141D01*
X895Y1140D01*
Y1134D01*
X889Y1133D01*
X878Y1126D01*
X868Y1117D01*
X862Y1106D01*
X859Y1093D01*
Y1088D01*
X707Y936D01*
X701Y929D01*
X697Y920D01*
X696Y911D01*
Y746D01*
X665Y715D01*
X391D01*
X163Y942D01*
X163Y944D01*
X157Y953D01*
X150Y960D01*
X141Y966D01*
X131Y968D01*
X121D01*
X118Y970D01*
Y2280D01*
X122Y2283D01*
X128Y2283D01*
X149Y2304D01*
X153Y2302D01*
D02*
G37*
G36*
X565Y2356D02*
X470Y2262D01*
X466Y2264D01*
Y2316D01*
X381D01*
Y2231D01*
X433D01*
X435Y2227D01*
X233Y2024D01*
X230Y2020D01*
X225Y2022D01*
Y2163D01*
X251D01*
Y2204D01*
Y2245D01*
X225D01*
Y2258D01*
X230Y2261D01*
X236Y2257D01*
X249Y2253D01*
X263D01*
X275Y2257D01*
X287Y2263D01*
X296Y2273D01*
X303Y2284D01*
X306Y2297D01*
Y2311D01*
X303Y2323D01*
X296Y2335D01*
X287Y2344D01*
X275Y2351D01*
X263Y2355D01*
X249D01*
X244Y2353D01*
X241Y2357D01*
X245Y2361D01*
X563D01*
X565Y2356D01*
D02*
G37*
G36*
X3100Y2313D02*
Y1692D01*
X3095Y1690D01*
X3094Y1693D01*
X3037Y1749D01*
Y1805D01*
X2981D01*
X2879Y1908D01*
Y1969D01*
X2916D01*
Y2018D01*
Y2066D01*
X2879D01*
Y2121D01*
X2914Y2157D01*
X2916Y2156D01*
X2927D01*
X2938Y2159D01*
X2949Y2163D01*
X2958Y2169D01*
X2966Y2178D01*
X2973Y2187D01*
X2977Y2198D01*
X2979Y2209D01*
Y2220D01*
X2977Y2232D01*
X2973Y2242D01*
X2966Y2252D01*
X2958Y2260D01*
X2949Y2266D01*
X2938Y2270D01*
X2927Y2273D01*
X2916D01*
X2904Y2270D01*
X2894Y2266D01*
X2884Y2260D01*
X2876Y2252D01*
X2870Y2242D01*
X2865Y2232D01*
X2863Y2220D01*
Y2209D01*
X2863Y2207D01*
X2824Y2168D01*
X2820Y2170D01*
Y2415D01*
X2818Y2424D01*
X2815Y2433D01*
X2809Y2440D01*
X2616Y2633D01*
X2618Y2638D01*
X2776D01*
X3100Y2313D01*
D02*
G37*
G36*
X1029Y2295D02*
Y2116D01*
X1031Y2105D01*
X1035Y2094D01*
X1036Y2093D01*
X1034Y2089D01*
X957D01*
Y2093D01*
X954Y2106D01*
X947Y2117D01*
X938Y2126D01*
X927Y2133D01*
X914Y2136D01*
X901D01*
X889Y2133D01*
X883Y2129D01*
X879Y2132D01*
Y2424D01*
X879Y2424D01*
X877Y2434D01*
X874Y2442D01*
X871Y2446D01*
X875Y2449D01*
X1029Y2295D01*
D02*
G37*
G36*
X859Y1986D02*
Y1981D01*
X862Y1968D01*
X868Y1957D01*
X878Y1948D01*
X889Y1941D01*
X895Y1940D01*
Y1934D01*
X889Y1933D01*
X878Y1926D01*
X868Y1917D01*
X862Y1906D01*
X859Y1893D01*
Y1881D01*
X862Y1868D01*
X868Y1857D01*
X878Y1848D01*
X889Y1841D01*
X895Y1840D01*
Y1834D01*
X889Y1833D01*
X878Y1826D01*
X868Y1817D01*
X862Y1806D01*
X859Y1794D01*
X856Y1792D01*
X854Y1791D01*
X827Y1818D01*
Y2010D01*
X832Y2012D01*
X859Y1986D01*
D02*
G37*
G36*
X2885Y1801D02*
X2884Y1798D01*
X2883Y1795D01*
X2882Y1795D01*
X2878D01*
X2874Y1794D01*
X2873Y1794D01*
X2871Y1794D01*
X2867Y1792D01*
X2864Y1790D01*
X2862Y1790D01*
X2861Y1789D01*
X2857Y1787D01*
X2854Y1784D01*
X2853Y1783D01*
X2852Y1782D01*
X2849Y1779D01*
X2847Y1775D01*
X2846Y1774D01*
X2845Y1772D01*
X2843Y1769D01*
X2842Y1765D01*
X2842Y1763D01*
X2841Y1762D01*
X2836Y1762D01*
X2833Y1772D01*
X2826Y1785D01*
X2820Y1791D01*
Y1859D01*
X2824Y1861D01*
X2885Y1801D01*
D02*
G37*
G36*
X233Y1164D02*
X306Y1091D01*
X305Y1088D01*
Y1077D01*
X307Y1065D01*
X312Y1055D01*
X308Y1052D01*
X225Y1135D01*
Y1166D01*
X230Y1168D01*
X233Y1164D01*
D02*
G37*
G36*
X807Y929D02*
X806Y921D01*
Y573D01*
X807Y564D01*
X811Y555D01*
X817Y548D01*
X1212Y152D01*
X1210Y148D01*
X482D01*
X118Y512D01*
Y880D01*
X123Y882D01*
X351Y654D01*
X358Y648D01*
X367Y644D01*
X376Y643D01*
X680D01*
X689Y644D01*
X698Y648D01*
X705Y654D01*
X757Y706D01*
X763Y713D01*
X766Y722D01*
X768Y731D01*
Y896D01*
X803Y931D01*
X807Y929D01*
D02*
G37*
%LPC*%
G36*
X1070Y2587D02*
X1056D01*
X1043Y2584D01*
X1031Y2579D01*
X1020Y2572D01*
X1011Y2562D01*
X1004Y2551D01*
X999Y2539D01*
X996Y2526D01*
Y2513D01*
X999Y2500D01*
X1004Y2488D01*
X1011Y2477D01*
X1020Y2468D01*
X1031Y2460D01*
X1043Y2455D01*
X1056Y2453D01*
X1070D01*
X1083Y2455D01*
X1095Y2460D01*
X1106Y2468D01*
X1115Y2477D01*
X1122Y2488D01*
X1127Y2500D01*
X1130Y2513D01*
Y2526D01*
X1127Y2539D01*
X1122Y2551D01*
X1115Y2562D01*
X1106Y2572D01*
X1095Y2579D01*
X1083Y2584D01*
X1070Y2587D01*
D02*
G37*
G36*
X1430Y2158D02*
X1345D01*
Y2074D01*
X1430D01*
Y2158D01*
D02*
G37*
G36*
X2391Y2534D02*
X2343D01*
X2294D01*
Y2491D01*
X2299D01*
Y2124D01*
X2262Y2088D01*
X2255Y2079D01*
X2251Y2068D01*
X2250Y2057D01*
X2251Y2046D01*
X2255Y2035D01*
X2262Y2026D01*
X2271Y2019D01*
X2282Y2015D01*
X2293Y2013D01*
X2305Y2015D01*
X2315Y2019D01*
X2324Y2026D01*
X2373Y2075D01*
X2380Y2084D01*
X2385Y2095D01*
X2386Y2106D01*
Y2491D01*
X2391D01*
Y2534D01*
D02*
G37*
G36*
X1732Y2160D02*
X1721Y2158D01*
X1710Y2154D01*
X1701Y2147D01*
X1694Y2138D01*
X1690Y2127D01*
X1689Y2116D01*
X1690Y2105D01*
X1694Y2094D01*
X1701Y2085D01*
X1710Y2076D01*
X1705Y1999D01*
X1695D01*
Y1973D01*
X1690Y1972D01*
X1686Y1980D01*
X1676Y1989D01*
X1665Y1996D01*
X1652Y1999D01*
X1639D01*
X1626Y1996D01*
X1615Y1989D01*
X1606Y1980D01*
X1599Y1968D01*
X1598Y1964D01*
X1593Y1963D01*
X1577Y1980D01*
X1568Y1987D01*
X1557Y1991D01*
X1546Y1992D01*
X1534Y1991D01*
X1524Y1987D01*
X1515Y1980D01*
X1508Y1971D01*
X1503Y1960D01*
X1502Y1949D01*
X1503Y1938D01*
X1508Y1927D01*
X1515Y1918D01*
X1531Y1902D01*
Y1634D01*
X1529Y1632D01*
X1521Y1619D01*
X1518Y1604D01*
Y1601D01*
X1632D01*
Y1604D01*
X1628Y1619D01*
X1621Y1632D01*
X1618Y1634D01*
Y1902D01*
X1623Y1904D01*
X1626Y1902D01*
X1639Y1899D01*
X1652D01*
X1665Y1902D01*
X1676Y1909D01*
X1686Y1918D01*
X1690Y1926D01*
X1695Y1925D01*
Y1899D01*
X1702D01*
Y1785D01*
X1703Y1774D01*
X1708Y1763D01*
X1715Y1754D01*
X1728Y1741D01*
Y1647D01*
X1720Y1639D01*
X1712Y1628D01*
X1707Y1616D01*
X1705Y1603D01*
Y1590D01*
X1707Y1577D01*
X1712Y1565D01*
X1720Y1554D01*
X1728Y1545D01*
Y1201D01*
X1729Y1189D01*
X1734Y1179D01*
X1740Y1171D01*
X1505Y936D01*
X1498Y927D01*
X1493Y917D01*
X1492Y906D01*
Y505D01*
X1488Y501D01*
X1481Y492D01*
X1477Y480D01*
X1474Y469D01*
Y457D01*
X1477Y445D01*
X1481Y434D01*
X1488Y424D01*
X1497Y415D01*
X1507Y409D01*
X1518Y404D01*
X1529Y402D01*
X1541D01*
X1553Y404D01*
X1564Y409D01*
X1574Y415D01*
X1583Y424D01*
X1590Y434D01*
X1594Y445D01*
X1596Y457D01*
Y469D01*
X1594Y480D01*
X1590Y492D01*
X1583Y501D01*
X1579Y505D01*
Y887D01*
X1761Y1069D01*
X1766Y1067D01*
X1766Y1065D01*
Y1038D01*
X1796D01*
Y1069D01*
X1770D01*
X1768Y1069D01*
X1766Y1074D01*
X1824Y1132D01*
X1829Y1135D01*
X1837Y1143D01*
X1843Y1154D01*
X1846Y1165D01*
Y1177D01*
X1843Y1189D01*
X1837Y1199D01*
X1829Y1207D01*
X1824Y1211D01*
X1815Y1219D01*
Y1545D01*
X1823Y1553D01*
X1992D01*
X2068Y1477D01*
X2066Y1472D01*
X2059D01*
X2057Y1473D01*
X2055Y1472D01*
X2022D01*
Y1439D01*
X2021Y1437D01*
Y1280D01*
X2023Y1271D01*
X2023Y1269D01*
Y1145D01*
X2020Y1138D01*
X2017Y1128D01*
Y1116D01*
X2020Y1106D01*
X2025Y1096D01*
X2033Y1088D01*
X2043Y1083D01*
X2053Y1080D01*
X2065D01*
X2075Y1083D01*
X2085Y1088D01*
X2093Y1096D01*
X2098Y1106D01*
X2101Y1116D01*
Y1128D01*
X2098Y1138D01*
X2095Y1145D01*
Y1278D01*
X2095Y1278D01*
X2094Y1287D01*
X2093Y1289D01*
Y1394D01*
X2098Y1398D01*
X2105Y1395D01*
X2105Y1395D01*
X2105Y1395D01*
X2110Y1394D01*
X2116Y1393D01*
X2116Y1393D01*
X2116Y1393D01*
X2452D01*
X2462Y1387D01*
X2473Y1385D01*
Y1379D01*
X2466Y1378D01*
X2456Y1372D01*
X2448Y1364D01*
X2442Y1354D01*
X2439Y1343D01*
Y1342D01*
X2482D01*
X2526D01*
Y1343D01*
X2523Y1354D01*
X2517Y1364D01*
X2509Y1372D01*
X2499Y1378D01*
X2492Y1379D01*
Y1385D01*
X2503Y1387D01*
X2515Y1394D01*
X2525Y1404D01*
X2532Y1416D01*
X2535Y1430D01*
Y1444D01*
X2532Y1458D01*
X2525Y1470D01*
X2515Y1480D01*
X2503Y1487D01*
X2489Y1490D01*
X2475D01*
X2462Y1487D01*
X2452Y1481D01*
X2163D01*
X2160Y1484D01*
X2160Y1491D01*
X2160Y1491D01*
X2160Y1491D01*
X2159Y1495D01*
X2158Y1502D01*
X2158Y1502D01*
X2158Y1502D01*
X2156Y1508D01*
X2154Y1513D01*
X2154Y1513D01*
X2154Y1513D01*
X2150Y1517D01*
X2147Y1522D01*
X2147Y1522D01*
X2147Y1522D01*
X2041Y1627D01*
X2032Y1634D01*
X2022Y1639D01*
X2010Y1640D01*
X1823D01*
X1815Y1647D01*
Y1759D01*
X1814Y1770D01*
X1809Y1781D01*
X1803Y1790D01*
X1789Y1803D01*
Y1899D01*
X1796D01*
Y1999D01*
X1796D01*
X1793Y2002D01*
X1799Y2090D01*
X1799Y2092D01*
X1799Y2093D01*
X1798Y2097D01*
X1798Y2102D01*
X1798Y2103D01*
X1797Y2104D01*
X1796Y2108D01*
X1794Y2112D01*
X1794Y2114D01*
X1793Y2115D01*
X1791Y2118D01*
X1788Y2122D01*
X1787Y2123D01*
X1786Y2124D01*
X1763Y2147D01*
X1754Y2154D01*
X1744Y2158D01*
X1732Y2160D01*
D02*
G37*
G36*
X1393Y1962D02*
X1382D01*
X1371Y1959D01*
X1362Y1953D01*
X1354Y1945D01*
X1348Y1936D01*
X1345Y1925D01*
Y1914D01*
X1348Y1903D01*
X1354Y1893D01*
X1362Y1885D01*
X1371Y1880D01*
X1382Y1877D01*
X1393D01*
X1404Y1880D01*
X1414Y1885D01*
X1422Y1893D01*
X1427Y1903D01*
X1430Y1914D01*
Y1925D01*
X1427Y1936D01*
X1422Y1945D01*
X1414Y1953D01*
X1404Y1959D01*
X1393Y1962D01*
D02*
G37*
G36*
X2341Y1907D02*
X2246D01*
Y1813D01*
X2341D01*
Y1907D01*
D02*
G37*
G36*
X1632Y1591D02*
X1580D01*
Y1539D01*
X1582D01*
X1597Y1543D01*
X1610Y1551D01*
X1621Y1561D01*
X1628Y1574D01*
X1632Y1589D01*
Y1591D01*
D02*
G37*
G36*
X1570D02*
X1518D01*
Y1589D01*
X1521Y1574D01*
X1529Y1561D01*
X1540Y1551D01*
X1553Y1543D01*
X1567Y1539D01*
X1570D01*
Y1591D01*
D02*
G37*
G36*
X1806Y1069D02*
Y1038D01*
X1837D01*
Y1069D01*
X1806D01*
D02*
G37*
G36*
X2526Y1332D02*
X2482D01*
X2439D01*
Y1331D01*
X2442Y1320D01*
X2448Y1310D01*
X2456Y1302D01*
X2466Y1297D01*
X2471Y1295D01*
X2470Y1290D01*
X2429D01*
Y1184D01*
X2485D01*
X2550Y1119D01*
Y1037D01*
X2546Y1035D01*
X2539Y1039D01*
X2526Y1042D01*
X2513D01*
X2500Y1039D01*
X2489Y1032D01*
X2480Y1023D01*
X2473Y1011D01*
X2469Y998D01*
Y985D01*
X2473Y972D01*
X2480Y961D01*
X2489Y952D01*
X2500Y945D01*
X2513Y942D01*
X2526D01*
X2539Y945D01*
X2546Y949D01*
X2550Y946D01*
Y723D01*
X2519Y692D01*
X2469D01*
Y592D01*
X2484D01*
Y413D01*
X2485Y404D01*
X2489Y396D01*
X2494Y388D01*
X2563Y320D01*
Y319D01*
X2566Y307D01*
X2572Y297D01*
X2580Y289D01*
X2591Y283D01*
X2602Y280D01*
X2614D01*
X2626Y283D01*
X2636Y289D01*
X2644Y297D01*
X2650Y307D01*
X2654Y319D01*
Y331D01*
X2650Y342D01*
X2644Y353D01*
X2636Y361D01*
X2626Y367D01*
X2614Y370D01*
X2614D01*
X2555Y428D01*
Y592D01*
X2570D01*
Y642D01*
X2611Y683D01*
X2611Y683D01*
X2617Y690D01*
X2620Y699D01*
X2622Y708D01*
Y1133D01*
X2622Y1133D01*
X2620Y1143D01*
X2617Y1151D01*
X2611Y1159D01*
X2535Y1234D01*
Y1290D01*
X2495D01*
X2494Y1295D01*
X2499Y1297D01*
X2509Y1302D01*
X2517Y1310D01*
X2523Y1320D01*
X2526Y1331D01*
Y1332D01*
D02*
G37*
G36*
X2769Y1133D02*
X2669D01*
Y1032D01*
X2769D01*
Y1133D01*
D02*
G37*
G36*
X1837Y1028D02*
X1806D01*
Y998D01*
X1837D01*
Y1028D01*
D02*
G37*
G36*
X1796D02*
X1766D01*
Y998D01*
X1796D01*
Y1028D01*
D02*
G37*
G36*
X1391Y1116D02*
X1380D01*
X1369Y1113D01*
X1359Y1107D01*
X1351Y1099D01*
X1345Y1090D01*
X1342Y1079D01*
Y1067D01*
X1345Y1056D01*
X1350Y1048D01*
Y819D01*
X1351Y810D01*
X1354Y801D01*
X1360Y794D01*
X1374Y780D01*
Y744D01*
X1461D01*
Y831D01*
X1425D01*
X1421Y834D01*
Y1048D01*
X1426Y1056D01*
X1429Y1067D01*
Y1079D01*
X1426Y1090D01*
X1420Y1099D01*
X1412Y1107D01*
X1402Y1113D01*
X1391Y1116D01*
D02*
G37*
G36*
X2250Y823D02*
X2238D01*
X2227Y820D01*
X2216Y814D01*
X2208Y805D01*
X2202Y795D01*
X2199Y784D01*
Y772D01*
X2202Y760D01*
X2208Y750D01*
X2216Y741D01*
X2227Y735D01*
X2238Y732D01*
X2250D01*
X2262Y735D01*
X2272Y741D01*
X2280Y750D01*
X2286Y760D01*
X2289Y772D01*
Y784D01*
X2286Y795D01*
X2280Y805D01*
X2272Y814D01*
X2262Y820D01*
X2250Y823D01*
D02*
G37*
G36*
X2929Y826D02*
X2918D01*
X2906Y824D01*
X2896Y819D01*
X2886Y813D01*
X2878Y805D01*
X2872Y795D01*
X2867Y785D01*
X2865Y773D01*
Y762D01*
X2867Y751D01*
X2872Y740D01*
X2878Y731D01*
X2886Y723D01*
X2896Y716D01*
X2906Y712D01*
X2918Y710D01*
X2929D01*
X2940Y712D01*
X2951Y716D01*
X2960Y723D01*
X2968Y731D01*
X2975Y740D01*
X2979Y751D01*
X2981Y762D01*
Y773D01*
X2979Y785D01*
X2975Y795D01*
X2968Y805D01*
X2960Y813D01*
X2951Y819D01*
X2940Y824D01*
X2929Y826D01*
D02*
G37*
G36*
X1422Y722D02*
Y694D01*
X1451D01*
X1449Y702D01*
X1444Y710D01*
X1438Y716D01*
X1430Y720D01*
X1422Y722D01*
D02*
G37*
G36*
X1412D02*
X1404Y720D01*
X1397Y716D01*
X1390Y710D01*
X1386Y702D01*
X1384Y694D01*
X1412D01*
Y722D01*
D02*
G37*
G36*
X1451Y684D02*
X1422D01*
Y656D01*
X1430Y658D01*
X1438Y662D01*
X1444Y668D01*
X1449Y676D01*
X1451Y684D01*
D02*
G37*
G36*
X1412D02*
X1384D01*
X1386Y676D01*
X1390Y668D01*
X1397Y662D01*
X1404Y658D01*
X1412Y656D01*
Y684D01*
D02*
G37*
G36*
X2972Y619D02*
X2928D01*
Y576D01*
X2972D01*
Y619D01*
D02*
G37*
G36*
X2918D02*
X2875D01*
Y576D01*
X2918D01*
Y619D01*
D02*
G37*
G36*
X2972Y566D02*
X2928D01*
Y522D01*
X2972D01*
Y566D01*
D02*
G37*
G36*
X2918D02*
X2875D01*
Y522D01*
X2918D01*
Y566D01*
D02*
G37*
G36*
X1181Y723D02*
X1170Y721D01*
X1159Y717D01*
X1150Y710D01*
X1143Y701D01*
X1139Y690D01*
X1137Y679D01*
Y557D01*
X1139Y546D01*
X1143Y535D01*
X1150Y526D01*
X1209Y468D01*
Y468D01*
X1260D01*
Y463D01*
X1265D01*
Y411D01*
X1311D01*
Y456D01*
X1312Y457D01*
X1313Y469D01*
X1312Y480D01*
X1311Y481D01*
Y514D01*
X1286D01*
X1225Y575D01*
Y679D01*
X1223Y690D01*
X1219Y701D01*
X1212Y710D01*
X1203Y717D01*
X1192Y721D01*
X1181Y723D01*
D02*
G37*
G36*
X1255Y458D02*
X1209D01*
Y411D01*
X1255D01*
Y458D01*
D02*
G37*
G36*
X1865Y454D02*
X1819D01*
Y407D01*
X1865D01*
Y454D01*
D02*
G37*
G36*
X1404Y524D02*
X1392D01*
X1380Y521D01*
X1369Y517D01*
X1359Y510D01*
X1350Y501D01*
X1344Y492D01*
X1339Y480D01*
X1337Y469D01*
Y457D01*
X1339Y445D01*
X1344Y434D01*
X1350Y424D01*
X1359Y415D01*
X1369Y409D01*
X1380Y404D01*
X1392Y402D01*
X1404D01*
X1415Y404D01*
X1427Y409D01*
X1437Y415D01*
X1445Y424D01*
X1452Y434D01*
X1456Y445D01*
X1459Y457D01*
Y469D01*
X1456Y480D01*
X1452Y492D01*
X1445Y501D01*
X1437Y510D01*
X1427Y517D01*
X1415Y521D01*
X1404Y524D01*
D02*
G37*
G36*
X2152Y520D02*
X2140D01*
X2128Y517D01*
X2117Y513D01*
X2107Y506D01*
X2098Y498D01*
X2092Y488D01*
X2087Y476D01*
X2085Y465D01*
Y453D01*
X2087Y441D01*
X2092Y430D01*
X2098Y420D01*
X2107Y411D01*
X2117Y405D01*
X2128Y400D01*
X2140Y398D01*
X2152D01*
X2163Y400D01*
X2175Y405D01*
X2185Y411D01*
X2193Y420D01*
X2200Y430D01*
X2204Y441D01*
X2207Y453D01*
Y465D01*
X2204Y476D01*
X2200Y488D01*
X2193Y498D01*
X2185Y506D01*
X2175Y513D01*
X2163Y517D01*
X2152Y520D01*
D02*
G37*
G36*
X2506Y360D02*
X2475D01*
Y330D01*
X2506D01*
Y360D01*
D02*
G37*
G36*
X2465D02*
X2435D01*
Y330D01*
X2465D01*
Y360D01*
D02*
G37*
G36*
X2506Y320D02*
X2475D01*
Y289D01*
X2506D01*
Y320D01*
D02*
G37*
G36*
X2465D02*
X2435D01*
Y289D01*
X2465D01*
Y320D01*
D02*
G37*
G36*
X370Y1969D02*
X358D01*
X347Y1966D01*
X336Y1962D01*
X327Y1955D01*
X318Y1947D01*
X312Y1937D01*
X307Y1927D01*
X305Y1915D01*
Y1904D01*
X307Y1892D01*
X312Y1881D01*
X318Y1872D01*
X327Y1864D01*
X336Y1857D01*
X347Y1853D01*
X358Y1850D01*
X370D01*
X381Y1853D01*
X392Y1857D01*
X402Y1864D01*
X410Y1872D01*
X417Y1881D01*
X421Y1892D01*
X423Y1904D01*
Y1915D01*
X421Y1927D01*
X417Y1937D01*
X410Y1947D01*
X402Y1955D01*
X392Y1962D01*
X381Y1966D01*
X370Y1969D01*
D02*
G37*
G36*
Y1555D02*
X358D01*
X347Y1553D01*
X336Y1548D01*
X327Y1542D01*
X318Y1534D01*
X312Y1524D01*
X307Y1513D01*
X305Y1502D01*
Y1490D01*
X307Y1479D01*
X312Y1468D01*
X318Y1458D01*
X327Y1450D01*
X336Y1444D01*
X347Y1439D01*
X358Y1437D01*
X370D01*
X372Y1437D01*
X395Y1415D01*
X392Y1411D01*
X381Y1415D01*
X370Y1417D01*
X358D01*
X347Y1415D01*
X336Y1411D01*
X327Y1404D01*
X318Y1396D01*
X312Y1386D01*
X307Y1375D01*
X305Y1364D01*
Y1352D01*
X307Y1341D01*
X312Y1330D01*
X318Y1321D01*
X327Y1312D01*
X336Y1306D01*
X347Y1301D01*
X358Y1299D01*
X370D01*
X381Y1301D01*
X392Y1306D01*
X402Y1312D01*
X410Y1321D01*
X417Y1330D01*
X421Y1341D01*
X423Y1352D01*
Y1364D01*
X421Y1375D01*
X417Y1386D01*
X421Y1389D01*
X488Y1322D01*
Y1171D01*
X489Y1162D01*
X493Y1153D01*
X499Y1146D01*
X559Y1086D01*
Y1081D01*
X562Y1068D01*
X568Y1057D01*
X578Y1048D01*
X589Y1041D01*
X595Y1040D01*
Y1034D01*
X589Y1033D01*
X578Y1026D01*
X568Y1017D01*
X562Y1006D01*
X559Y993D01*
Y981D01*
X562Y968D01*
X568Y957D01*
X578Y948D01*
X589Y941D01*
X595Y940D01*
Y934D01*
X589Y933D01*
X578Y926D01*
X568Y917D01*
X562Y906D01*
X559Y893D01*
Y881D01*
X562Y868D01*
X568Y857D01*
X578Y848D01*
X589Y841D01*
X595Y840D01*
Y834D01*
X589Y833D01*
X578Y826D01*
X568Y817D01*
X562Y806D01*
X559Y793D01*
Y781D01*
X562Y768D01*
X568Y757D01*
X578Y748D01*
X589Y741D01*
X601Y738D01*
X614D01*
X627Y741D01*
X638Y748D01*
X647Y757D01*
X654Y768D01*
X657Y781D01*
Y793D01*
X654Y806D01*
X647Y817D01*
X638Y826D01*
X627Y833D01*
X621Y834D01*
Y840D01*
X627Y841D01*
X638Y848D01*
X647Y857D01*
X654Y868D01*
X657Y881D01*
Y893D01*
X654Y906D01*
X647Y917D01*
X638Y926D01*
X627Y933D01*
X621Y934D01*
Y940D01*
X627Y941D01*
X638Y948D01*
X647Y957D01*
X654Y968D01*
X657Y981D01*
Y993D01*
X654Y1006D01*
X647Y1017D01*
X638Y1026D01*
X627Y1033D01*
X621Y1034D01*
Y1040D01*
X627Y1041D01*
X638Y1048D01*
X647Y1057D01*
X654Y1068D01*
X657Y1081D01*
Y1093D01*
X654Y1106D01*
X647Y1117D01*
X638Y1126D01*
X627Y1133D01*
X621Y1134D01*
Y1140D01*
X627Y1141D01*
X638Y1148D01*
X647Y1157D01*
X654Y1168D01*
X657Y1181D01*
Y1193D01*
X654Y1206D01*
X647Y1217D01*
X638Y1226D01*
X627Y1233D01*
X621Y1234D01*
Y1240D01*
X627Y1241D01*
X638Y1248D01*
X647Y1257D01*
X654Y1268D01*
X657Y1281D01*
Y1293D01*
X654Y1306D01*
X647Y1317D01*
X638Y1326D01*
X627Y1333D01*
X614Y1336D01*
X601D01*
X589Y1333D01*
X578Y1326D01*
X568Y1317D01*
X565Y1311D01*
X560Y1312D01*
Y1336D01*
X558Y1346D01*
X555Y1354D01*
X549Y1362D01*
X423Y1488D01*
X423Y1490D01*
Y1502D01*
X421Y1513D01*
X417Y1524D01*
X410Y1534D01*
X402Y1542D01*
X392Y1548D01*
X381Y1553D01*
X370Y1555D01*
D02*
G37*
G36*
X908Y1531D02*
X762D01*
X751Y1529D01*
X740Y1525D01*
X731Y1518D01*
X644Y1431D01*
X608D01*
X597Y1429D01*
X586Y1425D01*
X577Y1418D01*
X570Y1409D01*
X566Y1398D01*
X564Y1387D01*
X566Y1376D01*
X570Y1365D01*
X577Y1356D01*
X586Y1349D01*
X597Y1345D01*
X608Y1343D01*
X662D01*
X673Y1345D01*
X684Y1349D01*
X693Y1356D01*
X780Y1443D01*
X908D01*
X919Y1445D01*
X930Y1449D01*
X939Y1456D01*
X946Y1465D01*
X950Y1476D01*
X952Y1487D01*
X950Y1498D01*
X946Y1509D01*
X939Y1518D01*
X930Y1525D01*
X919Y1529D01*
X908Y1531D01*
D02*
G37*
G36*
X297Y2245D02*
X261D01*
Y2209D01*
X297D01*
Y2245D01*
D02*
G37*
G36*
Y2199D02*
X261D01*
Y2163D01*
X297D01*
Y2199D01*
D02*
G37*
G36*
X2970Y2066D02*
X2926D01*
Y2023D01*
X2970D01*
Y2066D01*
D02*
G37*
G36*
Y2013D02*
X2926D01*
Y1969D01*
X2970D01*
Y2013D01*
D02*
G37*
%LPD*%
D17*
X1161Y1949D02*
D03*
X1102D02*
D03*
X2057Y1437D02*
D03*
X2116D02*
D03*
D18*
X2256Y1122D02*
D03*
X1073Y2116D02*
D03*
X1535D02*
D03*
X423Y2274D02*
D03*
D19*
X2059Y1122D02*
D03*
X1270Y2116D02*
D03*
X1732D02*
D03*
X1388Y1919D02*
D03*
X620Y2274D02*
D03*
D20*
X2470Y325D02*
D03*
X2106Y778D02*
D03*
X2972Y1398D02*
D03*
D21*
X2608Y325D02*
D03*
X2244Y778D02*
D03*
X1801Y1171D02*
D03*
X2835Y1398D02*
D03*
D22*
X2719Y1083D02*
D03*
X1746Y1949D02*
D03*
D23*
X3069Y1083D02*
D03*
X2520Y992D02*
D03*
X1646Y1949D02*
D03*
X1546D02*
D03*
D30*
X1801Y1033D02*
D03*
D33*
X2520Y642D02*
D03*
D40*
X2293Y1860D02*
D03*
D41*
Y2057D02*
D03*
D44*
X1388Y2116D02*
D03*
D46*
X256Y2204D02*
D03*
D47*
Y2304D02*
D03*
D48*
X1385Y1073D02*
D03*
X1417Y689D02*
D03*
X1181Y679D02*
D03*
D49*
X1417Y787D02*
D03*
X1181Y778D02*
D03*
D52*
X1535Y463D02*
Y906D01*
X1801Y1171D01*
X2116Y1437D02*
X2116Y1491D01*
X2010Y1596D02*
X2116Y1491D01*
X1772Y1596D02*
X2010D01*
X608Y1487D02*
X644Y1523D01*
X655D01*
X681Y1549D01*
Y2213D01*
X620Y2274D02*
X681Y2213D01*
X1181Y557D02*
Y679D01*
Y557D02*
X1270Y469D01*
X1870Y459D02*
X2106Y695D01*
Y778D01*
X2256Y927D01*
Y1122D01*
X1575Y1596D02*
Y1920D01*
X1546Y1949D02*
X1575Y1920D01*
X762Y1487D02*
X908D01*
X662Y1387D02*
X762Y1487D01*
X608Y1387D02*
X662D01*
X2884Y1486D02*
X2972Y1398D01*
X2884Y1486D02*
Y1752D01*
X1073Y2116D02*
Y2313D01*
X866Y2520D02*
X1073Y2313D01*
X2293Y2057D02*
X2343Y2106D01*
Y2539D01*
X1909Y2382D02*
Y2638D01*
X908Y1287D02*
Y1387D01*
X1772Y1201D02*
X1801Y1171D01*
X1772Y1201D02*
Y1596D01*
Y1759D01*
X1746Y1785D02*
X1772Y1759D01*
X1746Y1785D02*
Y1949D01*
X2116Y1437D02*
X2482D01*
X1746Y1949D02*
X1755Y2093D01*
X1732Y2116D02*
X1755Y2093D01*
D53*
X524Y1171D02*
X608Y1087D01*
X524Y1171D02*
Y1336D01*
X364Y1496D02*
X524Y1336D01*
X741Y1754D02*
X908Y1587D01*
X741Y1754D02*
Y2278D01*
X685Y2334D02*
X741Y2278D01*
X593Y2334D02*
X685D01*
X258Y1999D02*
X593Y2334D01*
X258Y1189D02*
Y1999D01*
Y1189D02*
X364Y1083D01*
X449Y1687D02*
X608D01*
X364Y1772D02*
X449Y1687D01*
X792Y1803D02*
X908Y1687D01*
X792Y1803D02*
Y2358D01*
X753Y2397D02*
X792Y2358D01*
X230Y2397D02*
X753D01*
X189Y2356D02*
X230Y2397D01*
X189Y1120D02*
Y2356D01*
Y1120D02*
X364Y945D01*
X1193Y931D02*
Y1073D01*
X1181Y919D02*
X1193Y931D01*
X1181Y778D02*
Y919D01*
X1385Y819D02*
Y1073D01*
Y819D02*
X1417Y787D01*
X2520Y413D02*
Y642D01*
Y413D02*
X2608Y325D01*
X2520Y642D02*
X2586Y708D01*
Y1133D01*
X2482Y1237D02*
X2586Y1133D01*
X3069Y1083D02*
Y1667D01*
X2984Y1752D02*
X3069Y1667D01*
X2843Y1893D02*
X2984Y1752D01*
X2843Y1893D02*
Y2136D01*
X2921Y2215D01*
X2146Y2539D02*
X2220Y2614D01*
X2585D01*
X2784Y2415D01*
Y1752D02*
Y2415D01*
Y1448D02*
Y1752D01*
Y1448D02*
X2835Y1398D01*
X126Y929D02*
X376Y679D01*
X680D01*
X732Y731D01*
Y911D01*
X908Y1087D01*
X2059Y1122D02*
Y1278D01*
X2057Y1280D02*
X2059Y1278D01*
X2057Y1280D02*
Y1437D01*
X1161Y1949D02*
Y2008D01*
X1270Y2116D01*
X908Y1187D02*
X1036Y1315D01*
Y1882D01*
X1102Y1949D01*
X843Y2052D02*
X908Y1987D01*
X843Y2052D02*
Y2424D01*
X783Y2484D02*
X843Y2424D01*
X783Y2484D02*
Y2578D01*
X883Y2678D01*
X1298D01*
X1457Y2520D01*
X908Y2087D02*
X942Y2053D01*
X1120D01*
X1260Y2193D01*
Y2520D01*
X908Y887D02*
X993Y972D01*
Y1116D01*
X1181Y1305D01*
Y1596D01*
X908Y787D02*
X1134Y1013D01*
Y1132D01*
X1378Y1376D01*
Y1596D01*
X842Y921D02*
X908Y987D01*
X842Y573D02*
Y921D01*
Y573D02*
X1299Y116D01*
X1665D01*
X2008Y459D01*
X1535Y2116D02*
Y2185D01*
X1732Y2382D01*
Y2638D01*
D54*
X3258Y3720D02*
X3268Y3711D01*
D55*
X1772Y1596D02*
D03*
X1575D02*
D03*
X1378D02*
D03*
X866Y2520D02*
D03*
X1063D02*
D03*
X1260D02*
D03*
D56*
X1181Y1596D02*
D03*
X1457Y2520D02*
D03*
D57*
X908Y787D02*
D03*
Y887D02*
D03*
Y987D02*
D03*
Y1087D02*
D03*
Y1187D02*
D03*
Y1287D02*
D03*
Y1387D02*
D03*
Y1487D02*
D03*
Y1587D02*
D03*
Y1687D02*
D03*
Y1787D02*
D03*
Y1887D02*
D03*
Y1987D02*
D03*
Y2087D02*
D03*
X608Y787D02*
D03*
Y887D02*
D03*
Y987D02*
D03*
Y1087D02*
D03*
Y1187D02*
D03*
Y1287D02*
D03*
Y1387D02*
D03*
Y1487D02*
D03*
Y1587D02*
D03*
Y1687D02*
D03*
Y1787D02*
D03*
Y1887D02*
D03*
Y1987D02*
D03*
X1909Y2638D02*
D03*
X1732D02*
D03*
X1909Y2382D02*
D03*
X1732D02*
D03*
D58*
X608Y2087D02*
D03*
D59*
X2146Y459D02*
D03*
X2008D02*
D03*
X1398Y463D02*
D03*
X1535D02*
D03*
D60*
X1870Y459D02*
D03*
X1260Y463D02*
D03*
D61*
X1193Y1073D02*
D03*
D62*
X2923Y571D02*
D03*
X2921Y2018D02*
D03*
D63*
X2923Y768D02*
D03*
X2921Y2215D02*
D03*
X2146Y2539D02*
D03*
D64*
X2784Y1752D02*
D03*
X2884D02*
D03*
X2482Y1337D02*
D03*
Y1437D02*
D03*
D65*
X2984Y1752D02*
D03*
D66*
X2482Y1237D02*
D03*
D67*
X2343Y2539D02*
D03*
D68*
X364Y1909D02*
D03*
Y1772D02*
D03*
Y1634D02*
D03*
Y1496D02*
D03*
Y1358D02*
D03*
Y1220D02*
D03*
Y1083D02*
D03*
Y945D02*
D03*
D69*
X197Y2559D02*
D03*
Y197D02*
D03*
X3051D02*
D03*
Y2559D02*
D03*
D70*
X126Y929D02*
D03*
M02*
