G04*
G04 #@! TF.GenerationSoftware,Altium Limited,Altium Designer,22.4.2 (48)*
G04*
G04 Layer_Color=32768*
%FSLAX23Y23*%
%MOIN*%
G70*
G04*
G04 #@! TF.SameCoordinates,3F3D87A5-55CA-4D91-88C0-6D81586DF976*
G04*
G04*
G04 #@! TF.FilePolarity,Positive*
G04*
G01*
G75*
%ADD13C,0.008*%
%ADD71C,0.004*%
%ADD72C,0.002*%
D13*
X2711Y325D02*
X2710Y335D01*
X2709Y345D01*
X2708Y355D01*
X2706Y364D01*
X2703Y374D01*
X2700Y383D01*
X2697Y393D01*
X2692Y402D01*
X2688Y410D01*
X2682Y419D01*
X2677Y427D01*
X2671Y435D01*
X2664Y442D01*
X2657Y449D01*
X2649Y456D01*
X2642Y462D01*
X2633Y468D01*
X2625Y473D01*
X2616Y478D01*
X2607Y482D01*
X2598Y486D01*
X2588Y489D01*
X2579Y491D01*
X2569Y493D01*
X2559Y495D01*
X2549Y496D01*
X2539Y496D01*
X2529Y496D01*
X2519Y495D01*
X2510Y493D01*
X2500Y491D01*
X2490Y489D01*
X2481Y486D01*
X2472Y482D01*
X2463Y478D01*
X2454Y473D01*
X2445Y468D01*
X2437Y462D01*
X2429Y456D01*
X2422Y449D01*
X2415Y442D01*
X2408Y435D01*
X2402Y427D01*
X2396Y419D01*
X2391Y410D01*
X2386Y402D01*
X2382Y393D01*
X2378Y383D01*
X2375Y374D01*
X2373Y364D01*
X2371Y355D01*
X2369Y345D01*
X2368Y335D01*
X2368Y325D01*
Y325D02*
X2368Y315D01*
X2369Y305D01*
X2371Y295D01*
X2373Y285D01*
X2375Y276D01*
X2378Y266D01*
X2382Y257D01*
X2386Y248D01*
X2391Y239D01*
X2396Y231D01*
X2402Y223D01*
X2408Y215D01*
X2415Y207D01*
X2422Y200D01*
X2429Y194D01*
X2437Y187D01*
X2445Y182D01*
X2454Y176D01*
X2463Y172D01*
X2472Y168D01*
X2481Y164D01*
X2490Y161D01*
X2500Y158D01*
X2510Y156D01*
X2519Y155D01*
X2529Y154D01*
X2539Y154D01*
X2549Y154D01*
X2559Y155D01*
X2569Y156D01*
X2579Y158D01*
X2588Y161D01*
X2598Y164D01*
X2607Y168D01*
X2616Y172D01*
X2625Y176D01*
X2633Y182D01*
X2642Y187D01*
X2649Y194D01*
X2657Y200D01*
X2664Y207D01*
X2671Y215D01*
X2677Y223D01*
X2682Y231D01*
X2688Y239D01*
X2692Y248D01*
X2697Y257D01*
X2700Y266D01*
X2703Y276D01*
X2706Y285D01*
X2708Y295D01*
X2709Y305D01*
X2710Y315D01*
X2711Y325D01*
X2346Y778D02*
X2346Y788D01*
X2345Y797D01*
X2344Y807D01*
X2342Y817D01*
X2339Y827D01*
X2336Y836D01*
X2332Y845D01*
X2328Y854D01*
X2324Y863D01*
X2318Y872D01*
X2313Y880D01*
X2306Y888D01*
X2300Y895D01*
X2293Y902D01*
X2285Y909D01*
X2277Y915D01*
X2269Y921D01*
X2261Y926D01*
X2252Y931D01*
X2243Y935D01*
X2234Y938D01*
X2224Y942D01*
X2215Y944D01*
X2205Y946D01*
X2195Y948D01*
X2185Y949D01*
X2175Y949D01*
X2165Y949D01*
X2155Y948D01*
X2145Y946D01*
X2136Y944D01*
X2126Y942D01*
X2117Y938D01*
X2107Y935D01*
X2098Y931D01*
X2090Y926D01*
X2081Y921D01*
X2073Y915D01*
X2065Y909D01*
X2058Y902D01*
X2051Y895D01*
X2044Y888D01*
X2038Y880D01*
X2032Y872D01*
X2027Y863D01*
X2022Y854D01*
X2018Y845D01*
X2014Y836D01*
X2011Y827D01*
X2009Y817D01*
X2007Y807D01*
X2005Y797D01*
X2004Y788D01*
X2004Y778D01*
Y778D02*
X2004Y768D01*
X2005Y758D01*
X2007Y748D01*
X2009Y738D01*
X2011Y728D01*
X2014Y719D01*
X2018Y710D01*
X2022Y701D01*
X2027Y692D01*
X2032Y683D01*
X2038Y675D01*
X2044Y667D01*
X2051Y660D01*
X2058Y653D01*
X2065Y646D01*
X2073Y640D01*
X2081Y634D01*
X2090Y629D01*
X2098Y625D01*
X2107Y620D01*
X2117Y617D01*
X2126Y613D01*
X2136Y611D01*
X2145Y609D01*
X2155Y607D01*
X2165Y607D01*
X2175Y606D01*
X2185Y607D01*
X2195Y607D01*
X2205Y609D01*
X2215Y611D01*
X2224Y613D01*
X2234Y617D01*
X2243Y620D01*
X2252Y625D01*
X2261Y629D01*
X2269Y634D01*
X2277Y640D01*
X2285Y646D01*
X2293Y653D01*
X2300Y660D01*
X2306Y667D01*
X2313Y675D01*
X2318Y683D01*
X2324Y692D01*
X2328Y701D01*
X2332Y710D01*
X2336Y719D01*
X2339Y728D01*
X2342Y738D01*
X2344Y748D01*
X2345Y758D01*
X2346Y768D01*
X2346Y778D01*
X1801Y1274D02*
X1791Y1273D01*
X1781Y1272D01*
X1771Y1271D01*
X1762Y1269D01*
X1752Y1266D01*
X1743Y1263D01*
X1733Y1260D01*
X1724Y1255D01*
X1716Y1251D01*
X1707Y1245D01*
X1699Y1240D01*
X1691Y1234D01*
X1684Y1227D01*
X1677Y1220D01*
X1670Y1212D01*
X1664Y1205D01*
X1658Y1196D01*
X1653Y1188D01*
X1648Y1179D01*
X1644Y1170D01*
X1640Y1161D01*
X1637Y1151D01*
X1635Y1142D01*
X1633Y1132D01*
X1631Y1122D01*
X1630Y1112D01*
X1630Y1102D01*
X1630Y1092D01*
X1631Y1082D01*
X1633Y1073D01*
X1635Y1063D01*
X1637Y1053D01*
X1640Y1044D01*
X1644Y1035D01*
X1648Y1026D01*
X1653Y1017D01*
X1658Y1008D01*
X1664Y1000D01*
X1670Y992D01*
X1677Y985D01*
X1684Y978D01*
X1691Y971D01*
X1699Y965D01*
X1707Y959D01*
X1716Y954D01*
X1724Y949D01*
X1733Y945D01*
X1743Y941D01*
X1752Y938D01*
X1762Y936D01*
X1771Y934D01*
X1781Y932D01*
X1791Y931D01*
X1801Y931D01*
X1801D02*
X1811Y931D01*
X1821Y932D01*
X1831Y934D01*
X1841Y936D01*
X1850Y938D01*
X1860Y941D01*
X1869Y945D01*
X1878Y949D01*
X1887Y954D01*
X1895Y959D01*
X1903Y965D01*
X1911Y971D01*
X1919Y978D01*
X1926Y985D01*
X1932Y992D01*
X1939Y1000D01*
X1944Y1008D01*
X1949Y1017D01*
X1954Y1026D01*
X1958Y1035D01*
X1962Y1044D01*
X1965Y1053D01*
X1968Y1063D01*
X1970Y1073D01*
X1971Y1082D01*
X1972Y1092D01*
X1972Y1102D01*
X1972Y1112D01*
X1971Y1122D01*
X1970Y1132D01*
X1968Y1142D01*
X1965Y1151D01*
X1962Y1161D01*
X1958Y1170D01*
X1954Y1179D01*
X1949Y1188D01*
X1944Y1196D01*
X1939Y1205D01*
X1932Y1212D01*
X1926Y1220D01*
X1919Y1227D01*
X1911Y1234D01*
X1903Y1240D01*
X1895Y1245D01*
X1887Y1251D01*
X1878Y1255D01*
X1869Y1260D01*
X1860Y1263D01*
X1850Y1266D01*
X1841Y1269D01*
X1831Y1271D01*
X1821Y1272D01*
X1811Y1273D01*
X1801Y1274D01*
X2732Y1398D02*
X2733Y1388D01*
X2733Y1378D01*
X2735Y1368D01*
X2737Y1358D01*
X2739Y1349D01*
X2743Y1339D01*
X2746Y1330D01*
X2750Y1321D01*
X2755Y1312D01*
X2760Y1304D01*
X2766Y1295D01*
X2772Y1288D01*
X2779Y1280D01*
X2786Y1273D01*
X2793Y1266D01*
X2801Y1260D01*
X2809Y1255D01*
X2818Y1249D01*
X2827Y1245D01*
X2836Y1240D01*
X2845Y1237D01*
X2854Y1234D01*
X2864Y1231D01*
X2874Y1229D01*
X2884Y1228D01*
X2894Y1227D01*
X2904Y1226D01*
X2914Y1227D01*
X2923Y1228D01*
X2933Y1229D01*
X2943Y1231D01*
X2953Y1234D01*
X2962Y1237D01*
X2971Y1240D01*
X2980Y1245D01*
X2989Y1249D01*
X2998Y1255D01*
X3006Y1260D01*
X3014Y1266D01*
X3021Y1273D01*
X3028Y1280D01*
X3035Y1288D01*
X3041Y1295D01*
X3047Y1304D01*
X3052Y1312D01*
X3057Y1321D01*
X3061Y1330D01*
X3064Y1339D01*
X3068Y1349D01*
X3070Y1358D01*
X3072Y1368D01*
X3074Y1378D01*
X3075Y1388D01*
X3075Y1398D01*
X3075Y1408D01*
X3074Y1418D01*
X3072Y1427D01*
X3070Y1437D01*
X3068Y1447D01*
X3064Y1456D01*
X3061Y1465D01*
X3057Y1474D01*
X3052Y1483D01*
X3047Y1492D01*
X3041Y1500D01*
X3035Y1508D01*
X3028Y1515D01*
X3021Y1522D01*
X3014Y1529D01*
X3006Y1535D01*
X2998Y1541D01*
X2989Y1546D01*
X2980Y1551D01*
X2971Y1555D01*
X2962Y1559D01*
X2953Y1562D01*
X2943Y1564D01*
X2933Y1566D01*
X2923Y1568D01*
X2914Y1569D01*
X2904Y1569D01*
X2894Y1569D01*
X2884Y1568D01*
X2874Y1566D01*
X2864Y1564D01*
X2854Y1562D01*
X2845Y1559D01*
X2836Y1555D01*
X2827Y1551D01*
X2818Y1546D01*
X2809Y1541D01*
X2801Y1535D01*
X2793Y1529D01*
X2786Y1522D01*
X2779Y1515D01*
X2772Y1508D01*
X2766Y1500D01*
X2760Y1492D01*
X2755Y1483D01*
X2750Y1474D01*
X2746Y1465D01*
X2743Y1456D01*
X2739Y1447D01*
X2737Y1437D01*
X2735Y1427D01*
X2733Y1418D01*
X2733Y1408D01*
X2732Y1398D01*
X2612Y1959D02*
X2612Y1969D01*
X2612Y1979D01*
X2611Y1989D01*
X2610Y1999D01*
X2608Y2009D01*
X2607Y2018D01*
X2605Y2028D01*
X2602Y2038D01*
X2600Y2048D01*
X2597Y2057D01*
X2593Y2067D01*
X2590Y2076D01*
X2586Y2085D01*
X2582Y2094D01*
X2577Y2103D01*
X2573Y2112D01*
X2568Y2121D01*
X2563Y2130D01*
X2557Y2138D01*
X2551Y2146D01*
X2545Y2154D01*
X2539Y2162D01*
X2533Y2170D01*
X2526Y2177D01*
X2519Y2184D01*
X2512Y2191D01*
X2504Y2198D01*
X2497Y2204D01*
X2489Y2211D01*
X2481Y2217D01*
X2473Y2222D01*
X2464Y2228D01*
X2456Y2233D01*
X2447Y2238D01*
X2438Y2243D01*
X2429Y2247D01*
X2420Y2251D01*
X2411Y2255D01*
X2401Y2259D01*
X2392Y2262D01*
X2382Y2265D01*
X2373Y2268D01*
X2363Y2270D01*
X2353Y2272D01*
X2343Y2274D01*
X2333Y2275D01*
X2323Y2276D01*
X2313Y2277D01*
X2303Y2277D01*
X2293Y2278D01*
X2283Y2277D01*
X2273Y2277D01*
X2263Y2276D01*
X2253Y2275D01*
X2243Y2274D01*
X2234Y2272D01*
X2224Y2270D01*
X2214Y2268D01*
X2204Y2265D01*
X2195Y2262D01*
X2185Y2259D01*
X2176Y2255D01*
X2167Y2251D01*
X2158Y2247D01*
X2149Y2243D01*
X2140Y2238D01*
X2131Y2233D01*
X2122Y2228D01*
X2114Y2222D01*
X2106Y2217D01*
X2098Y2211D01*
X2090Y2204D01*
X2082Y2198D01*
X2075Y2191D01*
X2068Y2184D01*
X2061Y2177D01*
X2054Y2170D01*
X2048Y2162D01*
X2041Y2154D01*
X2035Y2146D01*
X2030Y2138D01*
X2024Y2130D01*
X2019Y2121D01*
X2014Y2112D01*
X2009Y2103D01*
X2005Y2094D01*
X2001Y2085D01*
X1997Y2076D01*
X1993Y2067D01*
X1990Y2057D01*
X1987Y2048D01*
X1984Y2038D01*
X1982Y2028D01*
X1980Y2018D01*
X1978Y2009D01*
X1977Y1999D01*
X1976Y1989D01*
X1975Y1979D01*
X1975Y1969D01*
X1974Y1959D01*
X1975Y1949D01*
X1975Y1939D01*
X1976Y1929D01*
X1977Y1919D01*
X1978Y1909D01*
X1980Y1899D01*
X1982Y1889D01*
X1984Y1879D01*
X1987Y1870D01*
X1990Y1860D01*
X1993Y1851D01*
X1997Y1841D01*
X2001Y1832D01*
X2005Y1823D01*
X2009Y1814D01*
X2014Y1805D01*
X2019Y1796D01*
X2024Y1788D01*
X2030Y1779D01*
X2035Y1771D01*
X2041Y1763D01*
X2048Y1755D01*
X2054Y1748D01*
X2061Y1740D01*
X2068Y1733D01*
X2075Y1726D01*
X2082Y1719D01*
X2090Y1713D01*
X2098Y1707D01*
X2106Y1701D01*
X2114Y1695D01*
X2122Y1689D01*
X2131Y1684D01*
X2140Y1679D01*
X2149Y1675D01*
X2158Y1670D01*
X2167Y1666D01*
X2176Y1662D01*
X2185Y1659D01*
X2195Y1655D01*
X2204Y1652D01*
X2214Y1650D01*
X2224Y1647D01*
X2234Y1645D01*
X2243Y1644D01*
X2253Y1642D01*
X2263Y1641D01*
X2273Y1640D01*
X2283Y1640D01*
X2293Y1640D01*
X2303Y1640D01*
X2313Y1640D01*
X2323Y1641D01*
X2333Y1642D01*
X2343Y1644D01*
X2353Y1645D01*
X2363Y1647D01*
X2373Y1650D01*
X2382Y1652D01*
X2392Y1655D01*
X2401Y1659D01*
X2411Y1662D01*
X2420Y1666D01*
X2429Y1670D01*
X2438Y1675D01*
X2447Y1679D01*
X2456Y1684D01*
X2464Y1689D01*
X2473Y1695D01*
X2481Y1701D01*
X2489Y1707D01*
X2497Y1713D01*
X2504Y1719D01*
X2512Y1726D01*
X2519Y1733D01*
X2526Y1740D01*
X2533Y1748D01*
X2539Y1755D01*
X2545Y1763D01*
X2551Y1771D01*
X2557Y1779D01*
X2563Y1788D01*
X2568Y1796D01*
X2573Y1805D01*
X2577Y1814D01*
X2582Y1823D01*
X2586Y1832D01*
X2590Y1841D01*
X2593Y1851D01*
X2597Y1860D01*
X2600Y1870D01*
X2602Y1879D01*
X2605Y1889D01*
X2607Y1899D01*
X2608Y1909D01*
X2610Y1919D01*
X2611Y1929D01*
X2612Y1939D01*
X2612Y1949D01*
X2612Y1959D01*
X2032Y1087D02*
X2282D01*
X2032D02*
Y1157D01*
X2282D01*
Y1087D02*
Y1157D01*
X2684Y1142D02*
X3103D01*
Y1024D02*
Y1142D01*
X2684Y1024D02*
X3103D01*
X2684D02*
Y1142D01*
X1046Y2152D02*
X1296D01*
Y2081D02*
Y2152D01*
X1046Y2081D02*
X1296D01*
X1046D02*
Y2152D01*
X1083Y1927D02*
X1181D01*
X1083D02*
Y1970D01*
X1181D01*
Y1927D02*
Y1970D01*
X2461Y608D02*
Y1026D01*
X2579D01*
Y608D02*
Y1026D01*
X2461Y608D02*
X2579D01*
X2037Y1459D02*
X2136D01*
Y1415D02*
Y1459D01*
X2037Y1415D02*
X2136D01*
X2037D02*
Y1459D01*
X1509Y2152D02*
X1759D01*
Y2081D02*
Y2152D01*
X1509Y2081D02*
X1759D01*
X1509D02*
Y2152D01*
X1352Y2143D02*
X1423D01*
X1352Y1893D02*
Y2143D01*
Y1893D02*
X1423D01*
Y2143D01*
X519Y848D02*
Y2006D01*
X226Y848D02*
Y2006D01*
Y848D02*
X519D01*
X226Y2006D02*
X519D01*
X397Y2309D02*
X647D01*
Y2238D02*
Y2309D01*
X397Y2238D02*
X647D01*
X397D02*
Y2309D01*
X199Y2143D02*
Y2365D01*
X312D01*
Y2143D02*
Y2365D01*
X199Y2143D02*
X312D01*
X1364Y815D02*
X1470D01*
X1364Y661D02*
Y815D01*
Y661D02*
X1470D01*
Y815D01*
X1128Y805D02*
X1234D01*
X1128Y652D02*
Y805D01*
Y652D02*
X1234D01*
Y805D01*
D71*
X758Y1417D02*
Y1457D01*
X738Y1437D02*
X778D01*
X1289Y1053D02*
Y1093D01*
X1270Y1073D02*
X1309D01*
X2864Y1752D02*
X2904D01*
X2884Y1732D02*
Y1772D01*
X2463Y1337D02*
X2502D01*
X2482Y1317D02*
Y1357D01*
X333Y1427D02*
X412D01*
X373Y1388D02*
Y1467D01*
D72*
X1481Y977D02*
X1492Y979D01*
X1501Y983D01*
X1509Y990D01*
X1514Y999D01*
X1517Y1010D01*
Y1136D02*
X1514Y1146D01*
X1509Y1156D01*
X1501Y1163D01*
X1491Y1167D01*
X1480Y1168D01*
X1099D02*
X1088Y1167D01*
X1079Y1163D01*
X1070Y1156D01*
X1065Y1146D01*
X1063Y1136D01*
Y1010D02*
X1065Y999D01*
X1070Y990D01*
X1078Y983D01*
X1088Y979D01*
X1098Y977D01*
X1476Y1594D02*
Y1634D01*
X1457Y1614D02*
X1496D01*
X1035Y1789D02*
X1917D01*
Y1439D02*
Y1789D01*
X1035Y1439D02*
X1917D01*
X1035D02*
Y1789D01*
X2008Y305D02*
Y344D01*
X1988Y325D02*
X2028D01*
X1766Y514D02*
X2250D01*
Y136D02*
Y514D01*
X1766Y136D02*
X2250D01*
X1766D02*
Y514D01*
X1098Y1168D02*
X1480D01*
X1098Y977D02*
X1480D01*
X1517Y1010D02*
Y1136D01*
X1063Y1010D02*
Y1136D01*
X1156Y140D02*
Y518D01*
Y140D02*
X1640D01*
Y518D01*
X1156D02*
X1640D01*
X1378Y329D02*
X1417D01*
X1398Y309D02*
Y348D01*
X2750Y441D02*
X3061D01*
Y898D01*
X2750D02*
X3061D01*
X2750Y441D02*
Y898D01*
X2906Y650D02*
Y689D01*
X2886Y669D02*
X2925D01*
X2884Y2116D02*
X2923D01*
X2904Y2096D02*
Y2136D01*
X2748Y1888D02*
Y2344D01*
X3059D01*
Y1888D02*
Y2344D01*
X2748Y1888D02*
X3059D01*
X2472Y2366D02*
Y2677D01*
X2016D02*
X2472D01*
X2016Y2366D02*
Y2677D01*
Y2366D02*
X2472D01*
X2224Y2522D02*
X2264D01*
X2244Y2502D02*
Y2541D01*
X1479Y1890D02*
X1812D01*
Y2008D01*
X1479D02*
X1812D01*
X1479Y1890D02*
Y2008D01*
X1161Y2482D02*
Y2522D01*
X1142Y2502D02*
X1181D01*
X720Y2327D02*
X1602D01*
X720D02*
Y2677D01*
X1602D01*
Y2327D02*
Y2677D01*
M02*
