G04*
G04 #@! TF.GenerationSoftware,Altium Limited,Altium Designer,22.4.2 (48)*
G04*
G04 Layer_Color=16711935*
%FSLAX23Y23*%
%MOIN*%
G70*
G04*
G04 #@! TF.SameCoordinates,3F3D87A5-55CA-4D91-88C0-6D81586DF976*
G04*
G04*
G04 #@! TF.FilePolarity,Positive*
G04*
G01*
G75*
%ADD10C,0.006*%
%ADD13C,0.008*%
%ADD14C,0.005*%
%ADD71C,0.004*%
D10*
X2707Y325D02*
X2706Y335D01*
X2705Y345D01*
X2704Y355D01*
X2702Y364D01*
X2699Y374D01*
X2696Y384D01*
X2692Y393D01*
X2688Y402D01*
X2683Y411D01*
X2678Y419D01*
X2672Y427D01*
X2665Y435D01*
X2659Y442D01*
X2651Y449D01*
X2644Y456D01*
X2636Y462D01*
X2627Y467D01*
X2619Y472D01*
X2610Y477D01*
X2601Y481D01*
X2591Y484D01*
X2581Y487D01*
X2572Y489D01*
X2562Y491D01*
X2552Y492D01*
X2542Y492D01*
X2532Y492D01*
X2522Y491D01*
X2512Y490D01*
X2502Y488D01*
X2492Y485D01*
X2483Y482D01*
X2474Y479D01*
X2465Y474D01*
X2456Y470D01*
X2447Y464D01*
X2439Y459D01*
X2431Y452D01*
X2424Y446D01*
X2417Y439D01*
X2410Y431D01*
X2404Y423D01*
X2398Y415D01*
X2393Y406D01*
X2389Y397D01*
X2385Y388D01*
X2381Y379D01*
X2378Y369D01*
X2376Y360D01*
X2374Y350D01*
X2373Y340D01*
X2372Y330D01*
Y320D01*
X2373Y310D01*
X2374Y300D01*
X2376Y290D01*
X2378Y280D01*
X2381Y271D01*
X2385Y261D01*
X2389Y252D01*
X2393Y243D01*
X2398Y235D01*
X2404Y226D01*
X2410Y219D01*
X2417Y211D01*
X2424Y204D01*
X2431Y197D01*
X2439Y191D01*
X2447Y185D01*
X2456Y180D01*
X2465Y175D01*
X2474Y171D01*
X2483Y167D01*
X2492Y164D01*
X2502Y162D01*
X2512Y160D01*
X2522Y158D01*
X2532Y158D01*
X2542Y157D01*
X2552Y158D01*
X2562Y159D01*
X2572Y161D01*
X2581Y163D01*
X2591Y166D01*
X2601Y169D01*
X2610Y173D01*
X2619Y177D01*
X2627Y182D01*
X2636Y188D01*
X2644Y194D01*
X2651Y200D01*
X2659Y207D01*
X2665Y215D01*
X2672Y222D01*
X2678Y231D01*
X2683Y239D01*
X2688Y248D01*
X2692Y257D01*
X2696Y266D01*
X2699Y275D01*
X2702Y285D01*
X2704Y295D01*
X2705Y305D01*
X2706Y315D01*
X2707Y325D01*
X2343Y778D02*
X2342Y788D01*
X2341Y798D01*
X2340Y807D01*
X2338Y817D01*
X2335Y827D01*
X2332Y836D01*
X2328Y846D01*
X2324Y855D01*
X2319Y863D01*
X2313Y872D01*
X2308Y880D01*
X2301Y888D01*
X2294Y895D01*
X2287Y902D01*
X2280Y908D01*
X2272Y914D01*
X2263Y920D01*
X2254Y925D01*
X2246Y929D01*
X2236Y933D01*
X2227Y937D01*
X2217Y939D01*
X2208Y942D01*
X2198Y943D01*
X2188Y944D01*
X2178Y945D01*
X2168Y945D01*
X2158Y944D01*
X2148Y943D01*
X2138Y941D01*
X2128Y938D01*
X2119Y935D01*
X2109Y931D01*
X2100Y927D01*
X2092Y922D01*
X2083Y917D01*
X2075Y911D01*
X2067Y905D01*
X2060Y898D01*
X2053Y891D01*
X2046Y884D01*
X2040Y876D01*
X2034Y868D01*
X2029Y859D01*
X2024Y850D01*
X2020Y841D01*
X2017Y832D01*
X2014Y822D01*
X2012Y812D01*
X2010Y802D01*
X2009Y793D01*
X2008Y783D01*
Y773D01*
X2009Y763D01*
X2010Y753D01*
X2012Y743D01*
X2014Y733D01*
X2017Y723D01*
X2020Y714D01*
X2024Y705D01*
X2029Y696D01*
X2034Y687D01*
X2040Y679D01*
X2046Y671D01*
X2053Y664D01*
X2060Y657D01*
X2067Y650D01*
X2075Y644D01*
X2083Y638D01*
X2092Y633D01*
X2100Y628D01*
X2109Y624D01*
X2119Y620D01*
X2128Y617D01*
X2138Y614D01*
X2148Y612D01*
X2158Y611D01*
X2168Y610D01*
X2178Y610D01*
X2188Y611D01*
X2198Y612D01*
X2208Y613D01*
X2217Y616D01*
X2227Y618D01*
X2236Y622D01*
X2246Y626D01*
X2254Y630D01*
X2263Y635D01*
X2272Y641D01*
X2280Y647D01*
X2287Y653D01*
X2294Y660D01*
X2301Y667D01*
X2308Y675D01*
X2313Y683D01*
X2319Y692D01*
X2324Y700D01*
X2328Y710D01*
X2332Y719D01*
X2335Y728D01*
X2338Y738D01*
X2340Y748D01*
X2341Y758D01*
X2342Y768D01*
X2343Y778D01*
X1969Y1102D02*
X1968Y1112D01*
X1967Y1122D01*
X1966Y1132D01*
X1964Y1142D01*
X1961Y1152D01*
X1958Y1161D01*
X1954Y1170D01*
X1950Y1179D01*
X1945Y1188D01*
X1939Y1197D01*
X1934Y1205D01*
X1927Y1212D01*
X1920Y1220D01*
X1913Y1227D01*
X1906Y1233D01*
X1897Y1239D01*
X1889Y1245D01*
X1880Y1250D01*
X1872Y1254D01*
X1862Y1258D01*
X1853Y1261D01*
X1843Y1264D01*
X1834Y1267D01*
X1824Y1268D01*
X1814Y1269D01*
X1804Y1270D01*
X1794Y1270D01*
X1784Y1269D01*
X1774Y1267D01*
X1764Y1265D01*
X1754Y1263D01*
X1745Y1260D01*
X1735Y1256D01*
X1726Y1252D01*
X1718Y1247D01*
X1709Y1242D01*
X1701Y1236D01*
X1693Y1230D01*
X1686Y1223D01*
X1679Y1216D01*
X1672Y1209D01*
X1666Y1201D01*
X1660Y1192D01*
X1655Y1184D01*
X1650Y1175D01*
X1646Y1166D01*
X1643Y1156D01*
X1640Y1147D01*
X1638Y1137D01*
X1636Y1127D01*
X1635Y1117D01*
X1634Y1107D01*
Y1097D01*
X1635Y1087D01*
X1636Y1077D01*
X1638Y1068D01*
X1640Y1058D01*
X1643Y1048D01*
X1646Y1039D01*
X1650Y1030D01*
X1655Y1021D01*
X1660Y1012D01*
X1666Y1004D01*
X1672Y996D01*
X1679Y989D01*
X1686Y981D01*
X1693Y975D01*
X1701Y968D01*
X1709Y963D01*
X1718Y957D01*
X1726Y953D01*
X1735Y949D01*
X1745Y945D01*
X1754Y942D01*
X1764Y939D01*
X1774Y937D01*
X1784Y936D01*
X1794Y935D01*
X1804Y935D01*
X1814Y936D01*
X1824Y937D01*
X1834Y938D01*
X1843Y940D01*
X1853Y943D01*
X1862Y947D01*
X1872Y951D01*
X1880Y955D01*
X1889Y960D01*
X1897Y966D01*
X1906Y972D01*
X1913Y978D01*
X1920Y985D01*
X1927Y992D01*
X1934Y1000D01*
X1939Y1008D01*
X1945Y1017D01*
X1950Y1025D01*
X1954Y1034D01*
X1958Y1044D01*
X1961Y1053D01*
X1964Y1063D01*
X1966Y1072D01*
X1967Y1082D01*
X1968Y1092D01*
X1969Y1102D01*
X3071Y1398D02*
X3071Y1408D01*
X3070Y1418D01*
X3068Y1428D01*
X3066Y1437D01*
X3063Y1447D01*
X3060Y1456D01*
X3056Y1466D01*
X3052Y1475D01*
X3047Y1483D01*
X3042Y1492D01*
X3036Y1500D01*
X3030Y1508D01*
X3023Y1515D01*
X3016Y1522D01*
X3008Y1528D01*
X3000Y1534D01*
X2992Y1540D01*
X2983Y1545D01*
X2974Y1549D01*
X2965Y1553D01*
X2955Y1557D01*
X2946Y1560D01*
X2936Y1562D01*
X2926Y1563D01*
X2916Y1564D01*
X2906Y1565D01*
X2896Y1565D01*
X2886Y1564D01*
X2876Y1563D01*
X2866Y1561D01*
X2857Y1558D01*
X2847Y1555D01*
X2838Y1551D01*
X2829Y1547D01*
X2820Y1543D01*
X2811Y1537D01*
X2803Y1532D01*
X2795Y1525D01*
X2788Y1519D01*
X2781Y1511D01*
X2774Y1504D01*
X2768Y1496D01*
X2763Y1488D01*
X2757Y1479D01*
X2753Y1470D01*
X2749Y1461D01*
X2745Y1452D01*
X2742Y1442D01*
X2740Y1432D01*
X2738Y1423D01*
X2737Y1413D01*
X2736Y1403D01*
Y1393D01*
X2737Y1383D01*
X2738Y1373D01*
X2740Y1363D01*
X2742Y1353D01*
X2745Y1344D01*
X2749Y1334D01*
X2753Y1325D01*
X2757Y1316D01*
X2763Y1308D01*
X2768Y1299D01*
X2774Y1291D01*
X2781Y1284D01*
X2788Y1277D01*
X2795Y1270D01*
X2803Y1264D01*
X2811Y1258D01*
X2820Y1253D01*
X2829Y1248D01*
X2838Y1244D01*
X2847Y1240D01*
X2857Y1237D01*
X2866Y1235D01*
X2876Y1233D01*
X2886Y1231D01*
X2896Y1230D01*
X2906Y1230D01*
X2916Y1231D01*
X2926Y1232D01*
X2936Y1233D01*
X2946Y1236D01*
X2955Y1239D01*
X2965Y1242D01*
X2974Y1246D01*
X2983Y1250D01*
X2992Y1255D01*
X3000Y1261D01*
X3008Y1267D01*
X3016Y1273D01*
X3023Y1280D01*
X3030Y1288D01*
X3036Y1295D01*
X3042Y1303D01*
X3047Y1312D01*
X3052Y1321D01*
X3056Y1330D01*
X3060Y1339D01*
X3063Y1348D01*
X3066Y1358D01*
X3068Y1368D01*
X3070Y1378D01*
X3071Y1388D01*
X3071Y1398D01*
X2608Y1959D02*
X2608Y1969D01*
X2608Y1979D01*
X2607Y1989D01*
X2606Y1999D01*
X2604Y2008D01*
X2603Y2018D01*
X2601Y2028D01*
X2598Y2038D01*
X2596Y2047D01*
X2593Y2057D01*
X2589Y2066D01*
X2586Y2076D01*
X2582Y2085D01*
X2578Y2094D01*
X2573Y2103D01*
X2569Y2112D01*
X2564Y2120D01*
X2558Y2129D01*
X2553Y2137D01*
X2547Y2145D01*
X2541Y2153D01*
X2535Y2161D01*
X2528Y2169D01*
X2521Y2176D01*
X2514Y2183D01*
X2507Y2190D01*
X2500Y2197D01*
X2492Y2203D01*
X2484Y2209D01*
X2476Y2215D01*
X2468Y2221D01*
X2459Y2226D01*
X2451Y2231D01*
X2442Y2236D01*
X2433Y2241D01*
X2424Y2245D01*
X2415Y2249D01*
X2406Y2253D01*
X2396Y2256D01*
X2387Y2259D01*
X2377Y2262D01*
X2368Y2265D01*
X2358Y2267D01*
X2348Y2269D01*
X2338Y2270D01*
X2328Y2272D01*
X2318Y2273D01*
X2308Y2273D01*
X2298Y2274D01*
X2288D01*
X2278Y2273D01*
X2268Y2273D01*
X2258Y2272D01*
X2248Y2270D01*
X2239Y2269D01*
X2229Y2267D01*
X2219Y2265D01*
X2209Y2262D01*
X2200Y2259D01*
X2190Y2256D01*
X2181Y2253D01*
X2172Y2249D01*
X2162Y2245D01*
X2153Y2241D01*
X2145Y2236D01*
X2136Y2231D01*
X2127Y2226D01*
X2119Y2221D01*
X2111Y2215D01*
X2103Y2209D01*
X2095Y2203D01*
X2087Y2197D01*
X2080Y2190D01*
X2072Y2183D01*
X2065Y2176D01*
X2059Y2169D01*
X2052Y2161D01*
X2046Y2153D01*
X2040Y2145D01*
X2034Y2137D01*
X2028Y2129D01*
X2023Y2120D01*
X2018Y2112D01*
X2013Y2103D01*
X2009Y2094D01*
X2005Y2085D01*
X2001Y2076D01*
X1997Y2066D01*
X1994Y2057D01*
X1991Y2047D01*
X1988Y2038D01*
X1986Y2028D01*
X1984Y2018D01*
X1982Y2008D01*
X1981Y1999D01*
X1980Y1989D01*
X1979Y1979D01*
X1979Y1969D01*
X1978Y1959D01*
X1979Y1949D01*
X1979Y1939D01*
X1980Y1929D01*
X1981Y1919D01*
X1982Y1909D01*
X1984Y1899D01*
X1986Y1889D01*
X1988Y1880D01*
X1991Y1870D01*
X1994Y1860D01*
X1997Y1851D01*
X2001Y1842D01*
X2005Y1832D01*
X2009Y1823D01*
X2013Y1814D01*
X2018Y1806D01*
X2023Y1797D01*
X2028Y1788D01*
X2034Y1780D01*
X2040Y1772D01*
X2046Y1764D01*
X2052Y1756D01*
X2059Y1749D01*
X2065Y1741D01*
X2072Y1734D01*
X2080Y1727D01*
X2087Y1721D01*
X2095Y1714D01*
X2103Y1708D01*
X2111Y1702D01*
X2119Y1696D01*
X2127Y1691D01*
X2136Y1686D01*
X2145Y1681D01*
X2153Y1676D01*
X2162Y1672D01*
X2172Y1668D01*
X2181Y1664D01*
X2190Y1661D01*
X2200Y1658D01*
X2209Y1655D01*
X2219Y1653D01*
X2229Y1650D01*
X2239Y1648D01*
X2248Y1647D01*
X2258Y1646D01*
X2268Y1645D01*
X2278Y1644D01*
X2288Y1644D01*
X2298Y1644D01*
X2308Y1644D01*
X2318Y1645D01*
X2328Y1646D01*
X2338Y1647D01*
X2348Y1648D01*
X2358Y1650D01*
X2368Y1653D01*
X2377Y1655D01*
X2387Y1658D01*
X2396Y1661D01*
X2406Y1664D01*
X2415Y1668D01*
X2424Y1672D01*
X2433Y1676D01*
X2442Y1681D01*
X2451Y1686D01*
X2459Y1691D01*
X2468Y1696D01*
X2476Y1702D01*
X2484Y1708D01*
X2492Y1714D01*
X2500Y1721D01*
X2507Y1727D01*
X2514Y1734D01*
X2521Y1741D01*
X2528Y1749D01*
X2535Y1756D01*
X2541Y1764D01*
X2547Y1772D01*
X2553Y1780D01*
X2558Y1788D01*
X2564Y1797D01*
X2569Y1806D01*
X2573Y1814D01*
X2578Y1823D01*
X2582Y1832D01*
X2586Y1842D01*
X2589Y1851D01*
X2593Y1860D01*
X2596Y1870D01*
X2598Y1880D01*
X2601Y1889D01*
X2603Y1899D01*
X2604Y1909D01*
X2606Y1919D01*
X2607Y1929D01*
X2608Y1939D01*
X2608Y1949D01*
X2608Y1959D01*
D13*
X2087Y1091D02*
X2228D01*
X2087D02*
Y1154D01*
X2228D01*
Y1091D02*
Y1154D01*
X2791Y1138D02*
X2996D01*
Y1028D02*
Y1138D01*
X2791Y1028D02*
X2996D01*
X2791D02*
Y1138D01*
X1100Y2148D02*
X1242D01*
Y2085D02*
Y2148D01*
X1100Y2085D02*
X1242D01*
X1100D02*
Y2148D01*
X1104Y1931D02*
X1159D01*
X1104D02*
Y1967D01*
X1159D01*
Y1931D02*
Y1967D01*
X2465Y715D02*
Y919D01*
X2575D01*
Y715D02*
Y919D01*
X2465Y715D02*
X2575D01*
X2059Y1455D02*
X2114D01*
Y1419D02*
Y1455D01*
X2059Y1419D02*
X2114D01*
X2059D02*
Y1455D01*
X1563Y2148D02*
X1705D01*
Y2085D02*
Y2148D01*
X1563Y2085D02*
X1705D01*
X1563D02*
Y2148D01*
X1356Y2089D02*
X1419D01*
X1356Y1947D02*
Y2089D01*
Y1947D02*
X1419D01*
Y2089D01*
X451Y2305D02*
X593D01*
Y2242D02*
Y2305D01*
X451Y2242D02*
X593D01*
X451D02*
Y2305D01*
X203Y2146D02*
Y2361D01*
X308D01*
Y2146D02*
Y2361D01*
X203Y2146D02*
X308D01*
X1368Y809D02*
X1467D01*
X1368Y667D02*
Y809D01*
Y667D02*
X1467D01*
Y809D01*
X1132Y799D02*
X1230D01*
X1132Y657D02*
Y799D01*
Y657D02*
X1230D01*
Y799D01*
D14*
X1943Y2388D02*
Y2632D01*
X1699D02*
X1943D01*
X1699Y2388D02*
Y2632D01*
Y2388D02*
X1943D01*
D71*
X671Y2096D02*
X669Y2106D01*
X661Y2114D01*
X652Y2116D01*
X642Y2114D01*
X635Y2106D01*
X632Y2096D01*
X635Y2087D01*
X642Y2079D01*
X652Y2077D01*
X661Y2079D01*
X669Y2087D01*
X671Y2096D01*
X1487Y1128D02*
X1485Y1137D01*
X1478Y1143D01*
X1469Y1146D01*
Y1000D02*
X1478Y1002D01*
X1485Y1009D01*
X1487Y1018D01*
X1092D02*
X1094Y1009D01*
X1100Y1002D01*
X1109Y1000D01*
Y1146D02*
X1100Y1143D01*
X1094Y1137D01*
X1092Y1128D01*
X1513Y1132D02*
X1511Y1142D01*
X1507Y1151D01*
X1499Y1158D01*
X1490Y1163D01*
X1480Y1164D01*
X1480Y981D02*
X1490Y983D01*
X1499Y988D01*
X1507Y995D01*
X1511Y1004D01*
X1513Y1014D01*
X1066Y1014D02*
X1068Y1004D01*
X1072Y995D01*
X1079Y988D01*
X1088Y983D01*
X1098Y981D01*
Y1164D02*
X1088Y1163D01*
X1079Y1158D01*
X1072Y1151D01*
X1068Y1142D01*
X1066Y1132D01*
X2911Y785D02*
X2903Y783D01*
X2896Y777D01*
X2894Y768D01*
X2896Y759D01*
X2903Y752D01*
X2911Y750D01*
X2911Y589D02*
X2903Y586D01*
X2896Y580D01*
X2894Y571D01*
X2896Y562D01*
X2903Y556D01*
X2911Y553D01*
X2909Y2035D02*
X2901Y2033D01*
X2894Y2027D01*
X2892Y2018D01*
X2894Y2009D01*
X2901Y2002D01*
X2909Y2000D01*
X2909Y2232D02*
X2901Y2230D01*
X2894Y2223D01*
X2892Y2215D01*
X2894Y2206D01*
X2901Y2199D01*
X2909Y2197D01*
X2128Y2528D02*
X2130Y2519D01*
X2137Y2512D01*
X2146Y2510D01*
X2155Y2512D01*
X2161Y2519D01*
X2163Y2528D01*
X2325Y2528D02*
X2327Y2519D01*
X2334Y2512D01*
X2343Y2510D01*
X2351Y2512D01*
X2358Y2519D01*
X2360Y2528D01*
X1043Y1447D02*
X1909D01*
X1043D02*
Y1781D01*
X1909D01*
Y1447D02*
Y1781D01*
X616Y742D02*
X900D01*
X616Y2132D02*
X900D01*
Y742D02*
Y2132D01*
X616Y742D02*
Y2132D01*
X2242Y144D02*
Y506D01*
X1774Y144D02*
X2242D01*
X1774D02*
Y506D01*
X2242D01*
X1066Y1014D02*
Y1132D01*
X1092Y1018D02*
Y1128D01*
X1513Y1014D02*
Y1132D01*
X1487Y1018D02*
Y1128D01*
X1109Y1146D02*
X1469D01*
X1109Y1000D02*
X1469D01*
X1098Y1164D02*
X1480D01*
X1098Y981D02*
X1480D01*
X1163Y510D02*
X1632D01*
X1163Y148D02*
Y510D01*
Y148D02*
X1632D01*
Y510D01*
X2829Y866D02*
X3053D01*
X2758D02*
X2795D01*
X2829D02*
X2831Y890D01*
X2793D02*
X2795Y866D01*
X2793Y890D02*
X2831D01*
X2758Y472D02*
X2959D01*
X2758D02*
Y866D01*
X2986Y472D02*
X3053D01*
X2986D02*
X2989Y449D01*
X2956D02*
X2959Y472D01*
X2956Y449D02*
X2989D01*
X3053Y472D02*
X3053Y866D01*
X2911Y750D02*
X3053Y742D01*
X2911Y786D02*
X3053Y793D01*
X2911Y589D02*
X3053Y596D01*
X2911Y553D02*
X3053Y545D01*
X2679Y1821D02*
X3089D01*
Y1640D02*
Y1821D01*
X2679Y1640D02*
X3089D01*
X2679D02*
Y1821D01*
Y1691D02*
X3089D01*
X2421Y1132D02*
Y1542D01*
X2370D02*
X2551D01*
X2370Y1132D02*
Y1542D01*
Y1132D02*
X2551D01*
Y1542D01*
X2909Y2000D02*
X3051Y1992D01*
X2909Y2036D02*
X3051Y2043D01*
X2909Y2232D02*
X3051Y2240D01*
X2909Y2197D02*
X3051Y2189D01*
X3051Y1919D02*
X3051Y2313D01*
X2954Y1896D02*
X2987D01*
X2954D02*
X2957Y1919D01*
X2984D02*
X2987Y1896D01*
X2984Y1919D02*
X3051D01*
X2756D02*
Y2313D01*
Y1919D02*
X2957D01*
X2791Y2337D02*
X2829D01*
X2791D02*
X2793Y2313D01*
X2827D02*
X2829Y2337D01*
X2756Y2313D02*
X2793D01*
X2827D02*
X3051D01*
X2047Y2445D02*
Y2669D01*
Y2374D02*
Y2411D01*
X2024Y2447D02*
X2047Y2445D01*
X2024Y2409D02*
X2047Y2411D01*
X2024Y2409D02*
Y2447D01*
X2441Y2374D02*
Y2575D01*
X2047Y2374D02*
X2441D01*
Y2602D02*
Y2669D01*
Y2602D02*
X2465Y2605D01*
X2441Y2575D02*
X2465Y2572D01*
Y2605D01*
X2047Y2669D02*
X2441Y2669D01*
X2164Y2528D02*
X2171Y2669D01*
X2120D02*
X2128Y2528D01*
X2317Y2669D02*
X2325Y2528D01*
X2360D02*
X2368Y2669D01*
X1488Y1899D02*
X1803D01*
Y1999D01*
X1488D02*
X1803D01*
X1488Y1899D02*
Y1999D01*
X728Y2669D02*
X1594D01*
Y2335D02*
Y2669D01*
X728Y2335D02*
X1594D01*
X728D02*
Y2669D01*
M02*
