G04*
G04 #@! TF.GenerationSoftware,Altium Limited,Altium Designer,22.4.2 (48)*
G04*
G04 Layer_Color=2752767*
%FSLAX23Y23*%
%MOIN*%
G70*
G04*
G04 #@! TF.SameCoordinates,3F3D87A5-55CA-4D91-88C0-6D81586DF976*
G04*
G04*
G04 #@! TF.FilePolarity,Positive*
G04*
G01*
G75*
%ADD14C,0.005*%
%ADD73C,0.007*%
%ADD74C,0.004*%
D14*
X2236Y1102D02*
Y1142D01*
X2276D01*
Y1102D01*
X2236D01*
X2039D02*
Y1142D01*
X2079D01*
Y1102D01*
X2039D01*
X2719Y1063D02*
X2699Y1103D01*
X2739D01*
X2719Y1063D01*
X3069D02*
X3049Y1103D01*
X3089D01*
X3069Y1063D01*
X1772Y1576D02*
X1782Y1586D01*
X1792D01*
X1782Y1596D01*
X1792Y1606D01*
X1782D01*
X1772Y1616D01*
X1762Y1606D01*
X1752D01*
X1762Y1596D01*
X1752Y1586D01*
X1762D01*
X1772Y1576D01*
X1575D02*
X1585Y1586D01*
X1595D01*
X1585Y1596D01*
X1595Y1606D01*
X1585D01*
X1575Y1616D01*
X1565Y1606D01*
X1555D01*
X1565Y1596D01*
X1555Y1586D01*
X1565D01*
X1575Y1576D01*
X1378D02*
X1388Y1586D01*
X1398D01*
X1388Y1596D01*
X1398Y1606D01*
X1388D01*
X1378Y1616D01*
X1368Y1606D01*
X1358D01*
X1368Y1596D01*
X1358Y1586D01*
X1368D01*
X1378Y1576D01*
X1181D02*
X1191Y1586D01*
X1201D01*
X1191Y1596D01*
X1201Y1606D01*
X1191D01*
X1181Y1616D01*
X1171Y1606D01*
X1161D01*
X1171Y1596D01*
X1161Y1586D01*
X1171D01*
X1181Y1576D01*
X1053Y2096D02*
Y2136D01*
X1093D01*
Y2096D01*
X1053D01*
X1250D02*
Y2136D01*
X1290D01*
Y2096D01*
X1250D01*
X888Y767D02*
X898Y787D01*
X888Y807D01*
X908Y797D01*
X928Y807D01*
X918Y787D01*
X928Y767D01*
X908Y777D01*
X888Y767D01*
Y867D02*
X898Y887D01*
X888Y907D01*
X908Y897D01*
X928Y907D01*
X918Y887D01*
X928Y867D01*
X908Y877D01*
X888Y867D01*
Y967D02*
X898Y987D01*
X888Y1007D01*
X908Y997D01*
X928Y1007D01*
X918Y987D01*
X928Y967D01*
X908Y977D01*
X888Y967D01*
Y1067D02*
X898Y1087D01*
X888Y1107D01*
X908Y1097D01*
X928Y1107D01*
X918Y1087D01*
X928Y1067D01*
X908Y1077D01*
X888Y1067D01*
Y1167D02*
X898Y1187D01*
X888Y1207D01*
X908Y1197D01*
X928Y1207D01*
X918Y1187D01*
X928Y1167D01*
X908Y1177D01*
X888Y1167D01*
Y1267D02*
X898Y1287D01*
X888Y1307D01*
X908Y1297D01*
X928Y1307D01*
X918Y1287D01*
X928Y1267D01*
X908Y1277D01*
X888Y1267D01*
Y1367D02*
X898Y1387D01*
X888Y1407D01*
X908Y1397D01*
X928Y1407D01*
X918Y1387D01*
X928Y1367D01*
X908Y1377D01*
X888Y1367D01*
Y1467D02*
X898Y1487D01*
X888Y1507D01*
X908Y1497D01*
X928Y1507D01*
X918Y1487D01*
X928Y1467D01*
X908Y1477D01*
X888Y1467D01*
Y1567D02*
X898Y1587D01*
X888Y1607D01*
X908Y1597D01*
X928Y1607D01*
X918Y1587D01*
X928Y1567D01*
X908Y1577D01*
X888Y1567D01*
Y1667D02*
X898Y1687D01*
X888Y1707D01*
X908Y1697D01*
X928Y1707D01*
X918Y1687D01*
X928Y1667D01*
X908Y1677D01*
X888Y1667D01*
Y1767D02*
X898Y1787D01*
X888Y1807D01*
X908Y1797D01*
X928Y1807D01*
X918Y1787D01*
X928Y1767D01*
X908Y1777D01*
X888Y1767D01*
Y1867D02*
X898Y1887D01*
X888Y1907D01*
X908Y1897D01*
X928Y1907D01*
X918Y1887D01*
X928Y1867D01*
X908Y1877D01*
X888Y1867D01*
Y1967D02*
X898Y1987D01*
X888Y2007D01*
X908Y1997D01*
X928Y2007D01*
X918Y1987D01*
X928Y1967D01*
X908Y1977D01*
X888Y1967D01*
Y2067D02*
X898Y2087D01*
X888Y2107D01*
X908Y2097D01*
X928Y2107D01*
X918Y2087D01*
X928Y2067D01*
X908Y2077D01*
X888Y2067D01*
X588Y767D02*
X598Y787D01*
X588Y807D01*
X608Y797D01*
X628Y807D01*
X618Y787D01*
X628Y767D01*
X608Y777D01*
X588Y767D01*
Y867D02*
X598Y887D01*
X588Y907D01*
X608Y897D01*
X628Y907D01*
X618Y887D01*
X628Y867D01*
X608Y877D01*
X588Y867D01*
Y967D02*
X598Y987D01*
X588Y1007D01*
X608Y997D01*
X628Y1007D01*
X618Y987D01*
X628Y967D01*
X608Y977D01*
X588Y967D01*
Y1067D02*
X598Y1087D01*
X588Y1107D01*
X608Y1097D01*
X628Y1107D01*
X618Y1087D01*
X628Y1067D01*
X608Y1077D01*
X588Y1067D01*
Y1167D02*
X598Y1187D01*
X588Y1207D01*
X608Y1197D01*
X628Y1207D01*
X618Y1187D01*
X628Y1167D01*
X608Y1177D01*
X588Y1167D01*
Y1267D02*
X598Y1287D01*
X588Y1307D01*
X608Y1297D01*
X628Y1307D01*
X618Y1287D01*
X628Y1267D01*
X608Y1277D01*
X588Y1267D01*
Y1367D02*
X598Y1387D01*
X588Y1407D01*
X608Y1397D01*
X628Y1407D01*
X618Y1387D01*
X628Y1367D01*
X608Y1377D01*
X588Y1367D01*
Y1467D02*
X598Y1487D01*
X588Y1507D01*
X608Y1497D01*
X628Y1507D01*
X618Y1487D01*
X628Y1467D01*
X608Y1477D01*
X588Y1467D01*
Y1567D02*
X598Y1587D01*
X588Y1607D01*
X608Y1597D01*
X628Y1607D01*
X618Y1587D01*
X628Y1567D01*
X608Y1577D01*
X588Y1567D01*
Y1667D02*
X598Y1687D01*
X588Y1707D01*
X608Y1697D01*
X628Y1707D01*
X618Y1687D01*
X628Y1667D01*
X608Y1677D01*
X588Y1667D01*
Y1767D02*
X598Y1787D01*
X588Y1807D01*
X608Y1797D01*
X628Y1807D01*
X618Y1787D01*
X628Y1767D01*
X608Y1777D01*
X588Y1767D01*
Y1867D02*
X598Y1887D01*
X588Y1907D01*
X608Y1897D01*
X628Y1907D01*
X618Y1887D01*
X628Y1867D01*
X608Y1877D01*
X588Y1867D01*
Y1967D02*
X598Y1987D01*
X588Y2007D01*
X608Y1997D01*
X628Y2007D01*
X618Y1987D01*
X628Y1967D01*
X608Y1977D01*
X588Y1967D01*
Y2067D02*
X598Y2087D01*
X588Y2107D01*
X608Y2097D01*
X628Y2107D01*
X618Y2087D01*
X628Y2067D01*
X608Y2077D01*
X588Y2067D01*
X2136Y449D02*
Y439D01*
X2156D01*
Y449D01*
X2166D01*
Y469D01*
X2156D01*
Y479D01*
X2136D01*
Y469D01*
X2126D01*
Y449D01*
X2136D01*
X1998D02*
Y439D01*
X2018D01*
Y449D01*
X2028D01*
Y469D01*
X2018D01*
Y479D01*
X1998D01*
Y469D01*
X1988D01*
Y449D01*
X1998D01*
X1860D02*
Y439D01*
X1880D01*
Y449D01*
X1890D01*
Y469D01*
X1880D01*
Y479D01*
X1860D01*
Y469D01*
X1850D01*
Y449D01*
X1860D01*
X1365Y1053D02*
X1375D01*
X1385Y1063D01*
X1395Y1053D01*
X1405D01*
Y1063D01*
X1395Y1073D01*
X1405Y1083D01*
Y1093D01*
X1395D01*
X1385Y1083D01*
X1375Y1093D01*
X1365D01*
Y1083D01*
X1375Y1073D01*
X1365Y1063D01*
Y1053D01*
X1173D02*
X1183D01*
X1193Y1063D01*
X1203Y1053D01*
X1213D01*
Y1063D01*
X1203Y1073D01*
X1213Y1083D01*
Y1093D01*
X1203D01*
X1193Y1083D01*
X1183Y1093D01*
X1173D01*
Y1083D01*
X1183Y1073D01*
X1173Y1063D01*
Y1053D01*
X1250Y453D02*
Y443D01*
X1270D01*
Y453D01*
X1280D01*
Y473D01*
X1270D01*
Y483D01*
X1250D01*
Y473D01*
X1240D01*
Y453D01*
X1250D01*
X1388D02*
Y443D01*
X1408D01*
Y453D01*
X1418D01*
Y473D01*
X1408D01*
Y483D01*
X1388D01*
Y473D01*
X1378D01*
Y453D01*
X1388D01*
X1525D02*
Y443D01*
X1545D01*
Y453D01*
X1555D01*
Y473D01*
X1545D01*
Y483D01*
X1525D01*
Y473D01*
X1515D01*
Y453D01*
X1525D01*
X2520Y622D02*
X2500Y662D01*
X2540D01*
X2520Y622D01*
Y972D02*
X2500Y1012D01*
X2540D01*
X2520Y972D01*
X2903Y571D02*
X2923Y591D01*
X2943Y571D01*
X2923Y551D01*
X2903Y571D01*
Y768D02*
X2923Y788D01*
X2943Y768D01*
X2923Y748D01*
X2903Y768D01*
X2764Y1732D02*
Y1772D01*
X2804D01*
Y1732D01*
X2764D01*
X2772Y1740D02*
Y1764D01*
X2796D01*
Y1740D01*
X2772D01*
X2864Y1732D02*
Y1772D01*
X2904D01*
Y1732D01*
X2864D01*
X2872Y1740D02*
Y1764D01*
X2896D01*
Y1740D01*
X2872D01*
X2964Y1732D02*
Y1772D01*
X3004D01*
Y1732D01*
X2964D01*
X2972Y1740D02*
Y1764D01*
X2996D01*
Y1740D01*
X2972D01*
X2462Y1217D02*
Y1257D01*
X2502D01*
Y1217D01*
X2462D01*
X2470Y1225D02*
Y1249D01*
X2494D01*
Y1225D01*
X2470D01*
X2462Y1317D02*
Y1357D01*
X2502D01*
Y1317D01*
X2462D01*
X2470Y1325D02*
Y1349D01*
X2494D01*
Y1325D01*
X2470D01*
X2462Y1417D02*
Y1457D01*
X2502D01*
Y1417D01*
X2462D01*
X2470Y1425D02*
Y1449D01*
X2494D01*
Y1425D01*
X2470D01*
X2901Y2215D02*
X2921Y2235D01*
X2941Y2215D01*
X2921Y2195D01*
X2901Y2215D01*
Y2018D02*
X2921Y2038D01*
X2941Y2018D01*
X2921Y1998D01*
X2901Y2018D01*
X2323Y2539D02*
X2343Y2559D01*
X2363Y2539D01*
X2343Y2519D01*
X2323Y2539D01*
X2126D02*
X2146Y2559D01*
X2166Y2539D01*
X2146Y2519D01*
X2126Y2539D01*
X2273Y1840D02*
X2283Y1860D01*
X2273Y1880D01*
X2293Y1870D01*
X2313Y1880D01*
X2303Y1860D01*
X2313Y1840D01*
X2293Y1850D01*
X2273Y1840D01*
Y2037D02*
X2283Y2057D01*
X2273Y2077D01*
X2293Y2067D01*
X2313Y2077D01*
X2303Y2057D01*
X2313Y2037D01*
X2293Y2047D01*
X2273Y2037D01*
X1909Y2618D02*
X1889Y2658D01*
X1929D01*
X1909Y2618D01*
X1732D02*
X1712Y2658D01*
X1752D01*
X1732Y2618D01*
X1909Y2362D02*
X1889Y2402D01*
X1929D01*
X1909Y2362D01*
X1732D02*
X1712Y2402D01*
X1752D01*
X1732Y2362D01*
X1515Y2096D02*
Y2136D01*
X1555D01*
Y2096D01*
X1515D01*
X1712D02*
Y2136D01*
X1752D01*
Y2096D01*
X1712D01*
X1368Y1899D02*
Y1939D01*
X1408D01*
Y1899D01*
X1368D01*
Y2096D02*
Y2136D01*
X1408D01*
Y2096D01*
X1368D01*
X354Y1899D02*
Y1889D01*
X374D01*
Y1899D01*
X384D01*
Y1919D01*
X374D01*
Y1929D01*
X354D01*
Y1919D01*
X344D01*
Y1899D01*
X354D01*
Y1762D02*
Y1752D01*
X374D01*
Y1762D01*
X384D01*
Y1782D01*
X374D01*
Y1792D01*
X354D01*
Y1782D01*
X344D01*
Y1762D01*
X354D01*
Y1624D02*
Y1614D01*
X374D01*
Y1624D01*
X384D01*
Y1644D01*
X374D01*
Y1654D01*
X354D01*
Y1644D01*
X344D01*
Y1624D01*
X354D01*
Y1486D02*
Y1476D01*
X374D01*
Y1486D01*
X384D01*
Y1506D01*
X374D01*
Y1516D01*
X354D01*
Y1506D01*
X344D01*
Y1486D01*
X354D01*
Y1348D02*
Y1338D01*
X374D01*
Y1348D01*
X384D01*
Y1368D01*
X374D01*
Y1378D01*
X354D01*
Y1368D01*
X344D01*
Y1348D01*
X354D01*
Y1210D02*
Y1200D01*
X374D01*
Y1210D01*
X384D01*
Y1230D01*
X374D01*
Y1240D01*
X354D01*
Y1230D01*
X344D01*
Y1210D01*
X354D01*
Y1073D02*
Y1063D01*
X374D01*
Y1073D01*
X384D01*
Y1093D01*
X374D01*
Y1103D01*
X354D01*
Y1093D01*
X344D01*
Y1073D01*
X354D01*
Y935D02*
Y925D01*
X374D01*
Y935D01*
X384D01*
Y955D01*
X374D01*
Y965D01*
X354D01*
Y955D01*
X344D01*
Y935D01*
X354D01*
X403Y2254D02*
Y2294D01*
X443D01*
Y2254D01*
X403D01*
X600D02*
Y2294D01*
X640D01*
Y2254D01*
X600D01*
X866Y2500D02*
X876Y2510D01*
X886D01*
X876Y2520D01*
X886Y2530D01*
X876D01*
X866Y2540D01*
X856Y2530D01*
X846D01*
X856Y2520D01*
X846Y2510D01*
X856D01*
X866Y2500D01*
X1063D02*
X1073Y2510D01*
X1083D01*
X1073Y2520D01*
X1083Y2530D01*
X1073D01*
X1063Y2540D01*
X1053Y2530D01*
X1043D01*
X1053Y2520D01*
X1043Y2510D01*
X1053D01*
X1063Y2500D01*
X1260D02*
X1270Y2510D01*
X1280D01*
X1270Y2520D01*
X1280Y2530D01*
X1270D01*
X1260Y2540D01*
X1250Y2530D01*
X1240D01*
X1250Y2520D01*
X1240Y2510D01*
X1250D01*
X1260Y2500D01*
X1457D02*
X1467Y2510D01*
X1477D01*
X1467Y2520D01*
X1477Y2530D01*
X1467D01*
X1457Y2540D01*
X1447Y2530D01*
X1437D01*
X1447Y2520D01*
X1437Y2510D01*
X1447D01*
X1457Y2500D01*
X1397Y669D02*
X1407D01*
X1417Y679D01*
X1427Y669D01*
X1437D01*
Y679D01*
X1427Y689D01*
X1437Y699D01*
Y709D01*
X1427D01*
X1417Y699D01*
X1407Y709D01*
X1397D01*
Y699D01*
X1407Y689D01*
X1397Y679D01*
Y669D01*
Y767D02*
X1407D01*
X1417Y777D01*
X1427Y767D01*
X1437D01*
Y777D01*
X1427Y787D01*
X1437Y797D01*
Y807D01*
X1427D01*
X1417Y797D01*
X1407Y807D01*
X1397D01*
Y797D01*
X1407Y787D01*
X1397Y777D01*
Y767D01*
X1161Y659D02*
X1171D01*
X1181Y669D01*
X1191Y659D01*
X1201D01*
Y669D01*
X1191Y679D01*
X1201Y689D01*
Y699D01*
X1191D01*
X1181Y689D01*
X1171Y699D01*
X1161D01*
Y689D01*
X1171Y679D01*
X1161Y669D01*
Y659D01*
Y758D02*
X1171D01*
X1181Y768D01*
X1191Y758D01*
X1201D01*
Y768D01*
X1191Y778D01*
X1201Y788D01*
Y798D01*
X1191D01*
X1181Y788D01*
X1171Y798D01*
X1161D01*
Y788D01*
X1171Y778D01*
X1161Y768D01*
Y758D01*
X197Y2539D02*
X177Y2579D01*
X217D01*
X197Y2539D01*
Y2547D02*
X185Y2571D01*
X209D01*
X197Y2547D01*
X126Y909D02*
X136Y919D01*
X146D01*
X136Y929D01*
X146Y939D01*
X136D01*
X126Y949D01*
X116Y939D01*
X106D01*
X116Y929D01*
X106Y919D01*
X116D01*
X126Y909D01*
Y917D02*
X132Y923D01*
X138D01*
X132Y929D01*
X138Y935D01*
X132D01*
X126Y941D01*
X120Y935D01*
X114D01*
X120Y929D01*
X114Y923D01*
X120D01*
X126Y917D01*
X197Y177D02*
X177Y217D01*
X217D01*
X197Y177D01*
Y185D02*
X185Y209D01*
X209D01*
X197Y185D01*
X3051Y177D02*
X3031Y217D01*
X3071D01*
X3051Y177D01*
Y185D02*
X3039Y209D01*
X3063D01*
X3051Y185D01*
Y2539D02*
X3031Y2579D01*
X3071D01*
X3051Y2539D01*
Y2547D02*
X3039Y2571D01*
X3063D01*
X3051Y2547D01*
D73*
X2490Y325D02*
X2488Y334D01*
X2482Y341D01*
X2473Y345D01*
X2463Y344D01*
X2456Y338D01*
X2451Y330D01*
Y320D01*
X2456Y312D01*
X2463Y306D01*
X2473Y305D01*
X2482Y308D01*
X2488Y316D01*
X2490Y325D01*
X2628D02*
X2626Y334D01*
X2620Y341D01*
X2611Y345D01*
X2601Y344D01*
X2593Y338D01*
X2589Y330D01*
Y320D01*
X2593Y312D01*
X2601Y306D01*
X2611Y305D01*
X2620Y308D01*
X2626Y316D01*
X2628Y325D01*
X2126Y778D02*
X2124Y787D01*
X2118Y794D01*
X2109Y797D01*
X2099Y796D01*
X2091Y791D01*
X2087Y782D01*
Y773D01*
X2091Y764D01*
X2099Y759D01*
X2109Y758D01*
X2118Y761D01*
X2124Y768D01*
X2126Y778D01*
X2264D02*
X2262Y787D01*
X2255Y794D01*
X2247Y797D01*
X2237Y796D01*
X2229Y791D01*
X2225Y782D01*
Y773D01*
X2229Y764D01*
X2237Y759D01*
X2247Y758D01*
X2255Y761D01*
X2262Y768D01*
X2264Y778D01*
X1821Y1033D02*
X1819Y1043D01*
X1813Y1050D01*
X1804Y1053D01*
X1794Y1052D01*
X1786Y1047D01*
X1782Y1038D01*
Y1029D01*
X1786Y1020D01*
X1794Y1015D01*
X1804Y1014D01*
X1813Y1017D01*
X1819Y1024D01*
X1821Y1033D01*
Y1171D02*
X1819Y1181D01*
X1813Y1188D01*
X1804Y1191D01*
X1794Y1190D01*
X1786Y1185D01*
X1782Y1176D01*
Y1166D01*
X1786Y1158D01*
X1794Y1153D01*
X1804Y1151D01*
X1813Y1155D01*
X1819Y1162D01*
X1821Y1171D01*
X2992Y1398D02*
X2990Y1407D01*
X2984Y1414D01*
X2975Y1417D01*
X2965Y1416D01*
X2957Y1411D01*
X2953Y1402D01*
Y1393D01*
X2957Y1384D01*
X2965Y1379D01*
X2975Y1378D01*
X2984Y1381D01*
X2990Y1388D01*
X2992Y1398D01*
X2855D02*
X2852Y1407D01*
X2846Y1414D01*
X2837Y1417D01*
X2828Y1416D01*
X2820Y1411D01*
X2815Y1402D01*
Y1393D01*
X2820Y1384D01*
X2828Y1379D01*
X2837Y1378D01*
X2846Y1381D01*
X2852Y1388D01*
X2855Y1398D01*
X1766Y1949D02*
X1763Y1958D01*
X1757Y1965D01*
X1748Y1969D01*
X1739Y1968D01*
X1731Y1962D01*
X1726Y1954D01*
Y1944D01*
X1731Y1936D01*
X1739Y1930D01*
X1748Y1929D01*
X1757Y1932D01*
X1763Y1940D01*
X1766Y1949D01*
X1666D02*
X1663Y1958D01*
X1657Y1965D01*
X1648Y1969D01*
X1639Y1968D01*
X1631Y1962D01*
X1626Y1954D01*
Y1944D01*
X1631Y1936D01*
X1639Y1930D01*
X1648Y1929D01*
X1657Y1932D01*
X1663Y1940D01*
X1666Y1949D01*
X1566D02*
X1563Y1958D01*
X1557Y1965D01*
X1548Y1969D01*
X1539Y1968D01*
X1531Y1962D01*
X1526Y1954D01*
Y1944D01*
X1531Y1936D01*
X1539Y1930D01*
X1548Y1929D01*
X1557Y1932D01*
X1563Y1940D01*
X1566Y1949D01*
X276Y2204D02*
X274Y2213D01*
X267Y2220D01*
X258Y2224D01*
X249Y2223D01*
X241Y2217D01*
X236Y2209D01*
Y2199D01*
X241Y2191D01*
X249Y2185D01*
X258Y2184D01*
X267Y2187D01*
X274Y2195D01*
X276Y2204D01*
Y2304D02*
X274Y2313D01*
X267Y2320D01*
X258Y2324D01*
X249Y2323D01*
X241Y2317D01*
X236Y2309D01*
Y2299D01*
X241Y2291D01*
X249Y2285D01*
X258Y2284D01*
X267Y2287D01*
X274Y2295D01*
X276Y2304D01*
D74*
X1758Y1949D02*
X1754Y1957D01*
X1746Y1961D01*
X1737Y1957D01*
X1734Y1949D01*
X1737Y1940D01*
X1746Y1937D01*
X1754Y1940D01*
X1758Y1949D01*
X1658D02*
X1654Y1957D01*
X1646Y1961D01*
X1637Y1957D01*
X1634Y1949D01*
X1637Y1940D01*
X1646Y1937D01*
X1654Y1940D01*
X1658Y1949D01*
X1558D02*
X1554Y1957D01*
X1546Y1961D01*
X1537Y1957D01*
X1534Y1949D01*
X1537Y1940D01*
X1546Y1937D01*
X1554Y1940D01*
X1558Y1949D01*
X268Y2204D02*
X264Y2212D01*
X256Y2216D01*
X247Y2212D01*
X244Y2204D01*
X247Y2195D01*
X256Y2192D01*
X264Y2195D01*
X268Y2204D01*
Y2304D02*
X264Y2312D01*
X256Y2316D01*
X247Y2312D01*
X244Y2304D01*
X247Y2295D01*
X256Y2292D01*
X264Y2295D01*
X268Y2304D01*
M02*
