M48
;Layer_Color=9474304
;FILE_FORMAT=2:4
INCH,TZ
;TYPE=PLATED
T1F00S00C0.0197
T2F00S00C0.0256
T3F00S00C0.0276
T4F00S00C0.0315
T5F00S00C0.0354
T6F00S00C0.0394
T7F00S00C0.0402
T8F00S00C0.0433
T9F00S00C0.0512
T10F00S00C0.0551
T11F00S00C0.0630
T12F00S00C0.1181
%
T01
X1259Y9290
T02
X20591Y11220
X22559
X13878Y19193
X6201Y22736
X4232
X10728Y21161
X12697
X13878
X15354
X17323
T03
X11811Y6791
Y7776
X14173Y7874
Y6890
X13854Y10728
X11933
T04
X24705Y3248
X26083
X28346Y13976
X29724
X22441Y7776
X21063
X18012Y10335
Y11713
T05
X22933Y18602
X9079Y18870
Y17870
Y16870
Y15870
Y14870
Y13870
Y12870
Y11870
Y10870
Y9870
Y8870
Y7870
X6079
Y8870
Y9870
Y10870
Y11870
Y12870
Y13870
Y14870
Y15870
Y16870
Y17870
Y18870
Y19870
X9079
Y20870
X6079
X22933Y20571
T06
X27189Y10827
X30685
X25197Y9917
Y6421
X19094Y23819
X17323
Y26378
X19094
T07
X15457Y19488
X16457
X17457
X2559Y22039
Y23039
T08
X27839Y17520
X28839
X29839
X24823Y14370
Y13370
Y12370
T09
X29232Y5709
Y7677
X23425Y25394
X21457
X29213Y22146
Y20177
T10
X12598Y4626
X13976
X15354
X18701Y4587
X20079
X21457
X3642Y9449
Y10827
Y12205
Y13583
Y14961
Y16339
Y17717
Y19094
T11
X11811Y15965
X13780
X15748
X17717
X10630Y25197
X8661
X12598
X14567
T12
X1969Y1969
X30512
X1969Y25591
X30512
M30
